<svg xmlns="http://www.w3.org/2000/svg" width="201" height="60" viewBox="-35 -18 323.2 89.2" x="-35" y="-18"><style type="text/css">.logo {fill: #007846; border: none; fill-opacity: 1} .line1 {fill: #000000; fill-opacity: 1}</style><path class="logo" d="m-27.5 10.7a302.2 302.2 0 0 1 66.1-12.3c6.8-0.5 7.8-20.5 1.7-20a314 314 0 0 0-68.7 12.7c-5.9 1.8-6.2 21.7 0.8 19.5"></path><path class="logo" d="m-29.1 42.6a183.5 183.5 0 0 1 40.9-8.4c7.2-0.6 7.5-20.7 1-20.1a196.1 196.1 0 0 0-43.6 9c-6.1 2-5.7 21.9 1.6 19.5"></path><path class="logo" d="m-29 74.6a232.9 232.9 0 0 1 66.9-10.4c7 0 7.8-20.1 1-20.1a242.8 242.8 0 0 0-69.6 11c-6.1 1.9-5.8 21.8 1.6 19.5"></path><path class="logo" d="M272 5.8V26.9h2.3v-14.8a7.2 7.2 0 0 1 2.2-3.5 6 6 0 0 1 4-1.3 4.9 4.9 0 0 1 3.9 1.5c0.9 1 1.4 2.7 1.4 5.2v12.9h2.3v-12.9q0-4.5-1.8-6.6a6.5 6.5 0 0 0-5.2-2.1 7.7 7.7 0 0 0-4.1 1.1 7.5 7.5 0 0 0-2.7 3l-0.2-3.7zm-21.2 10.3a10.1 10.1 0 0 1 1.9-6.1 6.5 6.5 0 0 1 10.3 0 10 10 0 0 1 1.9 6.1v0.6a10 10 0 0 1-1.9 6.2 6.6 6.6 0 0 1-10.3 0 10.1 10.1 0 0 1-1.8-6.2zm-2.3 0.7a11.4 11.4 0 0 0 2.6 7.7 9.2 9.2 0 0 0 13.6 0 11.4 11.4 0 0 0 2.6-7.7v-0.6a11.4 11.4 0 0 0-2.6-7.7 9.2 9.2 0 0 0-13.6 0 11.4 11.4 0 0 0-2.5 7.7zm-5.2-20.2h-2.3v3.3h2.3zm0 9.3h-2.3V26.9h2.3zm-24.9 0V26.9h2.3v-14.8a7.2 7.2 0 0 1 2.2-3.5 6 6 0 0 1 4-1.3 4.9 4.9 0 0 1 3.9 1.5c0.9 1 1.4 2.7 1.4 5.2v12.9h2.3v-12.9q0-4.5-1.8-6.6a6.5 6.5 0 0 0-5.2-2.1 7.6 7.6 0 0 0-4.1 1.1 7.5 7.5 0 0 0-2.7 3l-0.2-3.7zm-8.6-7.3V17.8a7.1 7.1 0 0 1-2.2 5.6 8.3 8.3 0 0 1-5.7 2 7.9 7.9 0 0 1-5.6-2 7.3 7.3 0 0 1-2.2-5.6V-1.5h-2.3V17.8a9 9 0 0 0 2.8 7.1 10.7 10.7 0 0 0 7.3 2.5 11 11 0 0 0 7.4-2.5q2.8-2.5 2.8-7.1V-1.5Zm-35.3 24a2.2 2.2 0 0 1-0.7-1.7 2.9 2.9 0 0 1 0.9-2.2 3.8 3.8 0 0 1 2.8-0.9h3.2v3a3.9 3.9 0 0 1-1.6 1.7 4.9 4.9 0 0 1-2.7 0.7 2.7 2.7 0 0 1-1.9-0.6m12.8 4.5a14.6 14.6 0 0 1-0.7-2.6 16.4 16.4 0 0 1-0.2-2.8v-8.8a6.7 6.7 0 0 0-2.4-5.5 9.4 9.4 0 0 0-6.2-1.9 10.1 10.1 0 0 0-6.5 2 5.3 5.3 0 0 0-2.3 4.6v0.1h5.5a2.4 2.4 0 0 1 0.8-1.9 3.7 3.7 0 0 1 4.5 0.2 3.3 3.3 0 0 1 0.8 2.4v1.7h-3.2q-4.6 0-7 1.7a5.6 5.6 0 0 0-2.4 4.8 6.1 6.1 0 0 0 1.8 4.7 7.1 7.1 0 0 0 5.1 1.7 5.8 5.8 0 0 0 3.4-1 8 8 0 0 0 2.4-2.5 11.1 11.1 0 0 0 0.3 1.6 11.5 11.5 0 0 0 0.5 1.5zm-27.3-10a8.5 8.5 0 0 1-1 4.4 3.3 3.3 0 0 1-3 1.6 4.7 4.7 0 0 1-2.2-0.5 3.5 3.5 0 0 1-1.4-1.4v-9.3a3.7 3.7 0 0 1 1.4-1.5 4.2 4.2 0 0 1 2.2-0.5 3.2 3.2 0 0 1 3 1.9 10.2 10.2 0 0 1 1 4.9zm5.7-0.4a13.6 13.6 0 0 0-2.2-8.1 7 7 0 0 0-6.1-3.1 6 6 0 0 0-3.1 0.8 6.8 6.8 0 0 0-2.2 2.1l-0.3-2.5h-5.1V35h5.7v-10.1a6.2 6.2 0 0 0 2.2 1.8 6.8 6.8 0 0 0 3 0.6 7.2 7.2 0 0 0 6-2.8 12.1 12.1 0 0 0 2.2-7.5zm-36.9-0.4a9.2 9.2 0 0 1 1-4.6 3.5 3.5 0 0 1 3.3-1.8 3.5 3.5 0 0 1 3.3 1.8 9 9 0 0 1 1 4.6v0.4a9.1 9.1 0 0 1-1 4.6 3.9 3.9 0 0 1-6.5 0 9.2 9.2 0 0 1-1-4.6zm-5.7 0.4a11.3 11.3 0 0 0 2.7 7.8 10.4 10.4 0 0 0 14.7 0 11.3 11.3 0 0 0 2.6-7.8v-0.4a11.3 11.3 0 0 0-2.6-7.8 9.3 9.3 0 0 0-7.3-3 9.2 9.2 0 0 0-7.3 3 11.3 11.3 0 0 0-2.6 7.8zm-1.4-10.9c-0.2-0.1-0.5-0.1-0.7-0.2a4.7 4.7 0 0 0-0.8-0.1 4.3 4.3 0 0 0-2.7 0.9 6.7 6.7 0 0 0-1.9 2.6l-0.2-3.1h-5.3V26.9h5.7v-14.3a3.3 3.3 0 0 1 1.3-1.5 3.7 3.7 0 0 1 2.1-0.5l2.1 0.1zm-20.9 21.3h4.9V5.8h-5.7V21.2a4 4 0 0 1-1.6 1.3 5.6 5.6 0 0 1-2.3 0.4 2.7 2.7 0 0 1-2.3-1 5.5 5.5 0 0 1-0.8-3.3V5.8h-5.7V18.5c0 3 0.6 5.2 1.9 6.7a7.3 7.3 0 0 0 8.7 1.2 7.1 7.1 0 0 0 2.5-2.6zm-18-16.9h-11.8V2.9h13.7v-4.4h-19.4V26.9h19.5v-4.4h-13.8v-8.1h11.8z"></path><text x="62.8" y="63.8" style="-inkscape-font-specification:'Roboto Light';font-family:'Roboto Light';font-weight:300;letter-spacing:1px;text-align:start"><tspan x="62.8" y="63.8" class="text_line line1" style="font-family:sans-serif;font-size:30px;font-weight:300;letter-spacing:0.8px">Saar</tspan></text></svg>
