<svg xmlns="http://www.w3.org/2000/svg" xmlns:xlink="http://www.w3.org/1999/xlink" width="290.31mm" height="314.98mm" viewBox="0 0 822.94 892.85">
  <defs>
    <style>
      .cls-1 {
        fill: url(#Dégradé_sans_nom_125);
      }

      .cls-2 {
        fill: url(#Dégradé_sans_nom_25);
      }

      .cls-3 {
        fill: #114f9e;
      }

      .cls-4 {
        fill: #fff;
      }

      .cls-5 {
        fill: url(#Dégradé_sans_nom_10);
      }

      .cls-6 {
        fill: url(#Dégradé_sans_nom_125-2);
      }

      .cls-7 {
        fill: url(#Dégradé_sans_nom_10-2);
      }
    </style>
    <linearGradient id="Dégradé_sans_nom_125" data-name="Dégradé sans nom 125" x1="649.35" y1="683.55" x2="308" y2="92.32" gradientUnits="userSpaceOnUse">
      <stop offset="0" stop-color="#d9a101"/>
      <stop offset="0.09" stop-color="#e2af0d"/>
      <stop offset="0.25" stop-color="#eec41f"/>
      <stop offset="0.44" stop-color="#f7d32b"/>
      <stop offset="0.66" stop-color="#fcdb33"/>
      <stop offset="1" stop-color="#fede35"/>
    </linearGradient>
    <linearGradient id="Dégradé_sans_nom_25" data-name="Dégradé sans nom 25" y1="303.84" x2="610.16" y2="303.84" gradientUnits="userSpaceOnUse">
      <stop offset="0" stop-color="#18509f"/>
      <stop offset="0.16" stop-color="#1a488e"/>
      <stop offset="0.5" stop-color="#1e3a71"/>
      <stop offset="0.79" stop-color="#20325f"/>
      <stop offset="1" stop-color="#212f59"/>
    </linearGradient>
    <linearGradient id="Dégradé_sans_nom_10" data-name="Dégradé sans nom 10" x1="119.95" y1="458.92" x2="702.58" y2="925.16" gradientTransform="translate(1 -2.73) rotate(0.16)" gradientUnits="userSpaceOnUse">
      <stop offset="0" stop-color="#18509f"/>
      <stop offset="0.48" stop-color="#184f9d"/>
      <stop offset="0.66" stop-color="#194c96"/>
      <stop offset="0.78" stop-color="#1b468b"/>
      <stop offset="0.88" stop-color="#1d3e7a"/>
      <stop offset="0.97" stop-color="#203464"/>
      <stop offset="1" stop-color="#212f59"/>
    </linearGradient>
    <linearGradient id="Dégradé_sans_nom_125-2" x1="516.22" y1="651.52" x2="516.22" y2="566.07" xlink:href="#Dégradé_sans_nom_125"/>
    <linearGradient id="Dégradé_sans_nom_10-2" x1="499.74" y1="608.8" x2="532.46" y2="608.8" gradientTransform="matrix(1, 0, 0, 1, 0, 0)" xlink:href="#Dégradé_sans_nom_10"/>
  </defs>
  <g id="Calque_2" data-name="Calque 2">
    <g id="Calque_1-2" data-name="Calque 1">
      <g>
        <circle class="cls-1" cx="478.68" cy="387.94" r="341.29"/>
        <path class="cls-2" d="M570.92,189.15c-78.49-100.49-93.16-196-231.57-31.32-20.48,24.37-97.07,59.39-136.48,53.46C87,193.83,0,333.61,0,333.6S31.82,520.1,106.59,537.76c38.14,9,52.36-34.22,138.93-61.64,59.47-18.84,91.09-10.59,135.2-16,58.31-7.19,137.6-33.66,229.44-143.22C609.39,281.84,602.7,229.84,570.92,189.15Zm-320,52.17,7.4,9L270,246.05l-7.15,10,7.47,9.12-11.68-2.88-7,9.78-.24-11.86-11.78-2.89,11.6-4.29Zm-22.78,45.81,7.37,9,11.55-4.26-7,9.8,7.42,9.06-11.7-2.91-7,9.82-.25-11.75L216.82,303l11.51-4.24Zm4.42,80.09-.24-11.71-11.73-2.88,11.54-4.26-.24-11.67,7.41,9,11.53-4.26-7,9.7,7.35,9.17-11.63-2.9Zm29.29,40.15-.24-11.75-11.67-2.87,11.52-4.24-.2-11.64,7.37,9,11.55-4.27-7,9.82,7.42,9-11.69-2.87Zm21-179.7,11.55-4.26-.25-11.67,7.39,9,11.55-4.26-7,9.79,7.39,9-11.65-2.87-7,9.75-.24-11.66Zm26,199.66-.24-11.7-11.73-2.89,11.58-4.27-.24-11.74,7.44,9.08,11.63-4.29-7.11,9.91,7.38,9-11.69-2.87Zm25.95-205.22,11.66-4.3-.25-11.67,7.39,9,11.61-4.28-7.08,9.86,7.52,9.17L354,227.05l-7,9.77L346.76,225Zm26.22,199.65-.23-11.71-11.73-2.88,11.57-4.27-.24-11.55,7.33,8.93L379.35,396l-7,9.81,7.43,9.06L368.08,412Zm80.56-150.7-7.05,9.81,7.43,9.05-11.66-2.86-7,9.75L423,285.07l-11.6-2.86L422.93,278l-.23-11.68,7.4,9Zm-48.3-44.9,7.41,9,11.51-4.25-7,9.75,7.44,9.09L401,246.81l-7,9.82-.25-11.71L382,242l11.68-4.31Zm11,166-.23-11.64-11.85-2.91,11.63-4.29-.24-11.74,7.45,9.08,11.57-4.28-7,9.82,7.42,9.05-11.69-2.87Zm22.8-45.75-.23-11.71-11.73-2.88,11.68-4.31-.36-11.57,7.4,9,11.51-4.25-7,9.76,7.44,9.08-11.69-2.87Z"/>
        <path class="cls-3" d="M610.64,320.76c.19.79-.25,1.77-.48,3.15-2.94-2.32-4.47-5.31-5.86-8.39-1.71-3.81-4.47-5.95-7.8-8.25a82,82,0,0,0-19.4-10,5.58,5.58,0,0,1-2.77-2.09c-5.9-9.2-15-12.37-24.22-15.14-5.24-1.57-10.36-4-16.12-3.48-1.77.16-3.86-1.29-5.45-2.54-5.61-4.43-11-9.17-16.61-13.62-2.06-1.64-4.32-3.44-6.74-4.05-10.47-2.62-21.05-4.62-31.92-3.09a6.12,6.12,0,0,1-1.72.25c-13.63-2.35-27.8-2.44-39.52-12.26-3.14-2.64-7.09-4.26-10.86-5.82-9.75-4-17.8-10.27-23.62-19.91-4.75-7.85-11.07-13.74-19.66-16.15a44.42,44.42,0,0,0-7.64-1.55c-4.9-.48-9.85-.5-14.75-1.06-1.88-.21-3.67-1.35-6.16-2.34,5.14-10.76,10.09-20.86,14.82-31.07,4.59-9.93,9-20,13.42-30C415.19,49.24,422.43-.78,435.22,0c41,28.12,96.61,46.71,113.09,34.72,24.31-17.67,92,44.35,85.82,62.25"/>
        <g>
          <g>
            <rect class="cls-4" x="273.54" y="200.81" width="16.75" height="455.79" transform="translate(161.7 -70.11) rotate(19.78)"/>
            <path class="cls-4" d="M212.68,646c-1.07,3.33-5.35,4.91-9.8,3.49s-7.12-5.49-6-8.83,5.47-4.67,9.91-3.25S213.75,642.66,212.68,646Z"/>
          </g>
          <path class="cls-4" d="M367.7,200.37a7,7,0,0,0,3.91,2.78c3.05.76,5.16,2.72,7.19,4.9a15.15,15.15,0,0,0,1.49,1.25c4.16,3.33,6.79,7.89,9.17,12.44,2.08,4,3.23,8.45,4.79,12.7,2.33,6.31,4.31,12.68,3.7,19.57-.22,2.51,0,5.05-.08,7.57a31.85,31.85,0,0,0,1.91,11.65c1.32,3.95,2.89,7.87,3.67,11.94A138.28,138.28,0,0,0,410,307.25a3.81,3.81,0,0,0,1.11,1.57,32.07,32.07,0,0,1,5.44,6.94,55.69,55.69,0,0,0,3.44,5,74.83,74.83,0,0,1,8.51,12.74c4.5,8.54,8.5,17.35,12.74,26q3.13,6.42,5.73,13.06c1.7,4.36,3,9,6,12.65,3.45,4.16,4.42,9,5.26,14.07.49,2.94,0,5.93.6,8.82a45.76,45.76,0,0,0,12.9,23.72c2.81,2.72,5.94,5.23,7.1,9.23,2.11,3.93,4.86,7.45,7.33,11.15,2.92,4.37,6,8.73,7.9,13.62,5,12.73,12.73,23.51,22.41,33,.35.35.83.55,1.21.87,3.14,2.71,7.23,3.72,10.61,6.11a101.82,101.82,0,0,1,23.25,23c1.11,1.5,2.19,3,2,5,1.64-.48,2.15-2.63,4.19-2,4,1.16,7.31-.43,10.12-3.24,1.23-1.23,1.54-2.52.28-3.94a38.72,38.72,0,0,0-2.83-3.28c-1.55-1.39-1-3-.65-4.53s1.83-.62,2.72-1a8.15,8.15,0,0,1,2.09-.34c-2.32-2.13-4.32-4.24-7.4-4.63-1.62-.2-1.83-1.67-1.9-2.78-.36-5.27-2.7-9-7.83-10.74-1.89-.64-2.26-2.19-1.83-3.81a44.45,44.45,0,0,1,2.61-8.2c2.87-5.89,4.79-12.14,6.9-18.32a12.85,12.85,0,0,0,.57-6.81,45.82,45.82,0,0,1-.21-18.77c1.8-8.49,2.67-17.22,7.63-24.73a5.11,5.11,0,0,0,.33-1.67c.62-3-.12-6.05.65-9,1.07-4.09,3.42-7.57,5.3-11.28.55-.17.72-.66,1-1.09,1-1.63,1.8-3.6,3.21-4.81,3-2.52,5.07-5.67,7.41-8.67a1.31,1.31,0,0,0-.2-2c-2.26-2-4.26-4.15-4.8-7.42-.38-2.27-1.19-4.74-.71-6.76.41-1.77,1.35-3.63,1.93-5.5a12.49,12.49,0,0,1,5-7.1c2.29-1.49,4.39-3.33,6.82-4.52,4-2,7.27-5.21,12.12-5.46,4-.2,7.94-1.13,11.9-1.74,3-.82,6.24-.92,9-2.81.83-.57,2.4-.15,3.62-.05,7.76.64,15.56,1,23.22,2.54,3.82.76,8,1.71,10.78,4.17,4.4,3.84,9.95,6.31,13.4,11.29a20.61,20.61,0,0,0,5.78,5.5c7.14,4.62,12.18,11.38,17.86,17.47,1.47,1.57,2.27,3.79,3.32,5.74a61.41,61.41,0,0,0,4.72,7.75c.9,1.21,1,2.84,1.68,4.22,1.55,3,2.73,6.16,4.17,9.2,1.67,3.56.6,7.29.58,10.88,0,5.48,2.76,8.95,6.63,12a3.47,3.47,0,0,0,2.35.6c5.37-.05,10.14-2,14.81-4.32a20.31,20.31,0,0,1,10-1.9,8.07,8.07,0,0,1,2.8,1c5.1,2,10.3,1.7,15.52.78,2.29-.41,2.47,1.84,3.45,2.88.65.68.79,2.06-.93,3.15-2.44,1.55-4.38,3.95-6.37,6.13a6.68,6.68,0,0,1-5,2.18c-3.41.15-5.79,1.53-6.82,5-1,3.29-2.3,6.46-3.59,9.64a25.84,25.84,0,0,1-14.79,15c-3.87,1.59-7.92,2.55-11.8,4-6.49,2.41-12.72,5.44-17,11.31a11.47,11.47,0,0,1-2.42,2.45c-4.12,3.12-6.91,7.33-9.35,11.78a18.33,18.33,0,0,1-6.53,7c-.26.16-.51.15-.68.6-2.94,7.77-3.39,15.57-.29,23.38.49,1.24-.06,2.37-.11,3.5-.28,6.38,1.48,12.39,3,18.46a14.24,14.24,0,0,1,.33,1.47c.83,6.32,5.22,10,10.21,12.79,13,7.26,24,16.55,32.34,29.06,5.08,7.64,11.54,14.18,18.29,20.42,8.07,7.47,14.48,16.13,17.47,26.84,1.25,4.47,3.89,8.15,5.68,12.29.35.81,0,1.27-.24,2-1.71,5.6-6.82,8.3-10.06,12.54-5.56,7.27-11.78,14.11-16.81,21.69-3.88,5.84-8.86,10.84-12.27,17a16.91,16.91,0,0,0-1.84,4.82,3.85,3.85,0,0,1-2.35,2.82c-5.57,2.86-11.12,5.76-16.61,8.76a25.23,25.23,0,0,0-3.54,2.79,50.7,50.7,0,0,1-8.8,5.87,21.68,21.68,0,0,0-7.06,5.27c-6.22,7.44-14.28,11.25-23.7,13a218.43,218.43,0,0,0-22.37,5.62c-7.33,2.21-15,3.37-22.78,1.92a37.13,37.13,0,0,0-12.91.27c-3.45.57-7,.75-10.38,1.59-2.51.61-4.32,2.53-6.85,3.06a93.59,93.59,0,0,1-12.35,1.72,23.77,23.77,0,0,0-4.29.47c-6.46,1.71-12.74-.12-19.05-1-4.78-.69-9.52-1.88-14.31-2.18-3.61-.22-7.38-.46-10.94.44a36.25,36.25,0,0,1-14.37.55c-4.76-.7-9.34-.1-13.41,2.8-1.75,1.24-3.64,1.39-5.86,1.3-4.29-.17-8.67-.52-12.92.73a17.11,17.11,0,0,1-6.61.84c-3.77-.39-7.25,1-10.88,1.51a21.35,21.35,0,0,1-8.79-.49,6.9,6.9,0,0,0-2.32-.47c-3.73.29-6.44-1.48-8.9-4a19.89,19.89,0,0,0-4.3-3.08,28.55,28.55,0,0,1-11.24-12.26,11,11,0,0,1-1-6.91,53.87,53.87,0,0,1,2-8.6,100.9,100.9,0,0,0,4-16.79c.66-4.2.26-8.4.87-12.51.82-5.52,1.64-11.11,5.22-15.88a16.21,16.21,0,0,0,3-8c.46-5,2.79-9.47,4-14.25,1.38-5.31,2.65-10.61,2.69-16.11a110.66,110.66,0,0,1,1.32-17.24c1.1-6.67,0-13.4.45-20.1.58-8.09,1.59-16,4.25-23.73a37.18,37.18,0,0,0-.44-26.6c-1.81-4.59-5.08-8.4-8.09-12.24-5.95-7.55-10-16.13-14.26-24.63A24,24,0,0,1,437,520.4a56.05,56.05,0,0,0-7.8-17.19c-5-7.76-8.86-16.14-12.53-24.59-.19-.44-.62-.86-.4-1.4a3.51,3.51,0,0,0-.36-2.71c-2-4.88-3.21-10-5-15-1.12-4.43-3.9-8-6.26-11.74a33.75,33.75,0,0,1-3.23-7.25c-2.39-7-5.61-13.35-10.73-18.79-1.82-1.94-2.86-4.64-4.14-7.06-2.34-4.44-5.55-8.45-6.65-13.51A73.56,73.56,0,0,1,378.46,389c-.29-5.83-1.09-11.59-1.9-17.34-.49-3.49-.41-7-1.14-10.49-.49-2.35-1.6-4.46-2.23-6.75-1.13-4.05-.54-8.32-1.69-12.36a49,49,0,0,1-1.21-5.47,2.87,2.87,0,0,0-1.38-2.31c-3.52-1.77-3.55-5.25-4.42-8.4-.64-2.36.68-4.41.59-6.7a47.4,47.4,0,0,0-1-9c-.42-1.78-2-2.75-3-4.11a21.17,21.17,0,0,0-3.18-3.24c-2.52-2.13-4-5-5.59-7.75a9.43,9.43,0,0,0-5-4.52c-3.76-1.31-4.74-3.09-4-7a19.9,19.9,0,0,1,4.08-8.94c1.94-2.44,1.88-2.43-.43-4.47a57.14,57.14,0,0,0-5.46-4.59c-3.6-2.44-6.67-2.24-9.26,1.19-2.36,3.15-5.39,5.85-6.8,9.66-1.89-.89-3.66-4.09-3.18-6.28a6,6,0,0,0-1.16-4.83,28.4,28.4,0,0,0-2.51-3.52c-1.89-2.12-1.81-4.8-2.07-7.3a22.94,22.94,0,0,1,1.27-11c1.44-3.61,2.9-7.2,4.58-10.72,1.48-3.11,2.68-6.35,3.95-9.55a3.12,3.12,0,0,1,2.44-2.16c2.74-.52,4.67-2.25,6.67-4.09a3.8,3.8,0,0,0,1.09-4.9,15.48,15.48,0,0,1-1-9.47c.23-1.16.4-1.93,1.86-2.14a6.18,6.18,0,0,0,4.1-2.19,2.27,2.27,0,0,1,.31-.31c3.46-3.35,4.56-3.47,8.56-1,1.26.78,1.87,1.17,2.3,1"/>
        </g>
      </g>
      <path class="cls-5" d="M78.43,628.32a20.71,20.71,0,0,1-2.07,9.08A23.84,23.84,0,0,1,70.57,645a28.5,28.5,0,0,1-8.81,5.26,31,31,0,0,1-11.25,2,69.13,69.13,0,0,1-9.93-.64,42.48,42.48,0,0,1-8.28-2A39.68,39.68,0,0,1,24.86,646a71.05,71.05,0,0,1-7.38-5.25L29.16,629a33.59,33.59,0,0,0,10,6,31.46,31.46,0,0,0,10.62,1.74,13.58,13.58,0,0,0,4.41-.69,12.43,12.43,0,0,0,3.61-1.86,9.14,9.14,0,0,0,2.44-2.76,7,7,0,0,0,.9-3.5,8.5,8.5,0,0,0-.74-3.61,8.84,8.84,0,0,0-2.66-3.08,26.8,26.8,0,0,0-5.31-3q-3.4-1.53-8.71-3.44a81.09,81.09,0,0,1-9-3.88,31.49,31.49,0,0,1-7.54-5.25A24.12,24.12,0,0,1,22,598.39a22.59,22.59,0,0,1-2-9.77,22.89,22.89,0,0,1,2.17-10,23.68,23.68,0,0,1,5.94-7.81,27.63,27.63,0,0,1,8.82-5A31.89,31.89,0,0,1,47.83,564a46.71,46.71,0,0,1,16.46,2.54A36,36,0,0,1,76.18,574L64.72,585.53a23.09,23.09,0,0,0-7.12-4.72,23.75,23.75,0,0,0-9.24-1.65,13.13,13.13,0,0,0-4.51.75,12.18,12.18,0,0,0-3.56,2,9.76,9.76,0,0,0-2.38,2.87,7.12,7.12,0,0,0-.91,3.45,8,8,0,0,0,.86,3.67A9.88,9.88,0,0,0,40.72,595a29,29,0,0,0,5.37,3.08c2.23,1,5,2.14,8.33,3.34a63.79,63.79,0,0,1,10.94,4.88,30.94,30.94,0,0,1,7.44,5.84A20.73,20.73,0,0,1,77,619.35,27.24,27.24,0,0,1,78.43,628.32Zm70-47.91H124.92l0,70.18H108.27l0-70.19H84.78V565.77h63.6Zm74.45,70.17H204.72l-6.05-19.32a30.73,30.73,0,0,0-2.38-5.84,18.33,18.33,0,0,0-3.44-4.57,14.39,14.39,0,0,0-4.82-3,18.93,18.93,0,0,0-6.63-1.06h-6.14v33.77H159l0-84.84,33.49-.12a27,27,0,0,1,10.08,1.86,24.34,24.34,0,0,1,8.05,5.14,23.71,23.71,0,0,1,5.3,7.75,24.4,24.4,0,0,1,1.91,9.67,22.69,22.69,0,0,1-1.16,7.22,24.43,24.43,0,0,1-3.26,6.47,25.23,25.23,0,0,1-5,5.26,21.24,21.24,0,0,1-6.38,3.45,16.26,16.26,0,0,1,6.54,4.3,21.2,21.2,0,0,1,4,6.74c.49,1.21,1,2.41,1.37,3.61s.86,2.46,1.32,3.77,1,2.73,1.48,4.25,1.11,3.2,1.74,5q1.17,3.51,2.18,6A29.71,29.71,0,0,0,222.84,650.58Zm-21.46-59.35a13.13,13.13,0,0,0-1.12-5.42,13.42,13.42,0,0,0-3-4.24,13.73,13.73,0,0,0-4.51-2.82,15.61,15.61,0,0,0-5.58-1H175.25v26.44h11.89a17.16,17.16,0,0,0,5.57-.91,13.28,13.28,0,0,0,4.52-2.6,12.37,12.37,0,0,0,4.14-9.45Zm117.34,59.32H300.67l-7.86-17h-41.2l-8,17H225.6l40.11-85h12.85Zm-32.39-30.68L272.2,589.3l-14.33,30.58Zm97.58,8.37a20.63,20.63,0,0,1-2.07,9.07,24.11,24.11,0,0,1-5.78,7.6,28.93,28.93,0,0,1-8.81,5.26,31.07,31.07,0,0,1-11.26,2,70.7,70.7,0,0,1-9.93-.63,42.49,42.49,0,0,1-8.28-2,38.94,38.94,0,0,1-7.43-3.55,68.74,68.74,0,0,1-7.38-5.26l11.67-11.79a33.21,33.21,0,0,0,10,6,31.12,31.12,0,0,0,10.61,1.75,13.86,13.86,0,0,0,4.41-.69,12.43,12.43,0,0,0,3.61-1.86,9,9,0,0,0,2.44-2.76,7,7,0,0,0,.9-3.51,8.48,8.48,0,0,0-.74-3.6,8.65,8.65,0,0,0-2.66-3.08,26.8,26.8,0,0,0-5.31-3q-3.39-1.53-8.7-3.45a81.21,81.21,0,0,1-9-3.87,31.49,31.49,0,0,1-7.54-5.25,24.22,24.22,0,0,1-5.2-7.22,22.59,22.59,0,0,1-2-9.77,22.89,22.89,0,0,1,2.17-10,23.5,23.5,0,0,1,5.95-7.81,27.58,27.58,0,0,1,8.81-5,31.89,31.89,0,0,1,10.88-1.81,46.22,46.22,0,0,1,16.46,2.54,36,36,0,0,1,11.9,7.43L370.2,585.45a23,23,0,0,0-7.11-4.73,23.94,23.94,0,0,0-9.24-1.64,13.38,13.38,0,0,0-4.51.74,12.07,12.07,0,0,0-3.56,2,9.8,9.8,0,0,0-2.39,2.87,7.11,7.11,0,0,0-.9,3.45,7.77,7.77,0,0,0,.85,3.66,9.85,9.85,0,0,0,2.87,3.19,29.12,29.12,0,0,0,5.36,3.08c2.23,1,5,2.14,8.34,3.34a63.24,63.24,0,0,1,10.93,4.88,30.31,30.31,0,0,1,7.44,5.84,20.81,20.81,0,0,1,4.25,7.16A27.35,27.35,0,0,1,383.91,628.24Zm72.2-2a22.18,22.18,0,0,1-2.17,9.82,24.78,24.78,0,0,1-5.78,7.75,26.72,26.72,0,0,1-8.34,5.05,27.66,27.66,0,0,1-9.93,1.81l-34.29-.1,0-84.95h30.58a30.65,30.65,0,0,1,10.25,1.64,24.28,24.28,0,0,1,8.23,4.77,21.73,21.73,0,0,1,5.47,7.65,25.16,25.16,0,0,1,2,10.14A21.38,21.38,0,0,1,450,599a23.27,23.27,0,0,1-5.63,7.54,19.66,19.66,0,0,1,4.94,3.5,23.17,23.17,0,0,1,3.72,4.72,22.65,22.65,0,0,1,2.34,5.53A22.28,22.28,0,0,1,456.11,626.2Zm-20.29-36.1a11.31,11.31,0,0,0-1.17-5.31,11,11,0,0,0-3.13-3.71,13.7,13.7,0,0,0-4.51-2.23,19.08,19.08,0,0,0-5.31-.74H412v23.36c1.77.07,3.36.1,4.78.1h4.89a21.55,21.55,0,0,0,5.3-.64,13.36,13.36,0,0,0,4.52-2,10.25,10.25,0,0,0,3.13-3.56A11,11,0,0,0,435.82,590.1Zm3.2,35.15a11.79,11.79,0,0,0-1-4.89,11.13,11.13,0,0,0-2.76-3.77,12.87,12.87,0,0,0-4-2.38,14,14,0,0,0-4.94-.85q-3.61-.11-7.11-.05t-7.12.05v23.47h12.32a22.93,22.93,0,0,0,5.31-.63,13.92,13.92,0,0,0,4.72-2.08,11.23,11.23,0,0,0,3.35-3.61A10.31,10.31,0,0,0,439,625.25Zm-320,158.68a37.06,37.06,0,0,1-3.76,16.29,43.16,43.16,0,0,1-10.42,13.61A51.6,51.6,0,0,1,89,823.22a55.89,55.89,0,0,1-20.22,3.47A123.88,123.88,0,0,1,51,825.5a76.09,76.09,0,0,1-14.85-3.66,70.75,70.75,0,0,1-13.33-6.42A124.92,124.92,0,0,1,9.57,806l21-21.1a60,60,0,0,0,17.89,10.81,55.91,55.91,0,0,0,19.05,3.2,24.79,24.79,0,0,0,7.92-1.22A22.18,22.18,0,0,0,82,794.32a16.22,16.22,0,0,0,4.39-4.94A12.56,12.56,0,0,0,88,783.09a15,15,0,0,0-1.32-6.48,15.59,15.59,0,0,0-4.75-5.55,48,48,0,0,0-9.52-5.45q-6.09-2.77-15.61-6.24a146.28,146.28,0,0,1-16.09-7,56.24,56.24,0,0,1-13.51-9.47,43.17,43.17,0,0,1-9.31-13,40.47,40.47,0,0,1-3.48-17.54,41,41,0,0,1,4-17.91,42,42,0,0,1,10.71-14,49.7,49.7,0,0,1,15.84-9,57.65,57.65,0,0,1,19.55-3.19q17.53,0,29.54,4.65a64.45,64.45,0,0,1,21.31,13.4L94.66,707.05a41.26,41.26,0,0,0-12.75-8.52,42.83,42.83,0,0,0-16.58-3,23.81,23.81,0,0,0-8.1,1.32,21.27,21.27,0,0,0-6.4,3.51,17.45,17.45,0,0,0-4.3,5.13,12.71,12.71,0,0,0-1.64,6.19,14.2,14.2,0,0,0,1.51,6.58A17.57,17.57,0,0,0,51.53,724a51.45,51.45,0,0,0,9.62,5.55q6,2.78,14.94,6a114.78,114.78,0,0,1,19.62,8.82A55.15,55.15,0,0,1,109,754.93a37.38,37.38,0,0,1,7.59,12.89A48.85,48.85,0,0,1,119.05,783.93ZM273.94,671.87l-.22,82.73A85.76,85.76,0,0,1,269.08,783a68.17,68.17,0,0,1-13.31,22.94,61.51,61.51,0,0,1-21.2,15.38q-12.51,5.6-28.51,5.55a69.41,69.41,0,0,1-28.2-5.6,63.5,63.5,0,0,1-21.41-15.21,66.94,66.94,0,0,1-13.57-22.72,81.15,81.15,0,0,1-4.69-28.13l.21-83.69,29.55.08-.22,83.88A53.74,53.74,0,0,0,170.17,772a39.67,39.67,0,0,0,7.21,13.46,33.8,33.8,0,0,0,11.89,9.08,38,38,0,0,0,16.29,3.38,41.5,41.5,0,0,0,16.88-3.1A31.58,31.58,0,0,0,234.28,786a38.59,38.59,0,0,0,7.09-13.23A55.87,55.87,0,0,0,243.79,756l.22-84.25Zm176.5,153-29-.08L421.73,723l-48.24,80.89L327.57,722l-.27,102.56-29-.08.4-152.5,33.36.09L374.2,747.8l44.42-75.56,32.22.08Zm180.72.46-29-.07.27-101.79L554.2,804.32l-45.92-81.9L508,825l-29-.08.39-152.5,33.36.09,42.13,75.78,44.42-75.56,32.21.08Zm58.14.16-29.55-.08.4-152.31,29.54.08ZM822.87,699.79l-42.13-.11-.32,126-29.93-.07.32-126-42.12-.11.07-26.3,114.18.29Zm-172-134.21v46.08a48.06,48.06,0,0,1-2.54,15.82,37.94,37.94,0,0,1-7.38,12.8,34.29,34.29,0,0,1-11.78,8.6,41.67,41.67,0,0,1-31.59.06,35.27,35.27,0,0,1-11.95-8.43,37.41,37.41,0,0,1-7.6-12.64,45.25,45.25,0,0,1-2.65-15.66l0-46.61H591.8v46.72a29.62,29.62,0,0,0,1.39,9.19,22.09,22.09,0,0,0,4,7.48,18.69,18.69,0,0,0,6.64,5,21.23,21.23,0,0,0,9.08,1.86,23.19,23.19,0,0,0,9.4-1.76,17.59,17.59,0,0,0,6.58-4.88,21.59,21.59,0,0,0,3.93-7.38,31.39,31.39,0,0,0,1.32-9.35V565.58ZM726.3,646.1q-1-2.51-2.18-6-.95-2.76-1.74-5c-.53-1.53-1-2.94-1.48-4.25L719.58,627c-.42-1.21-.88-2.41-1.37-3.61a20.81,20.81,0,0,0-4-6.74,16.15,16.15,0,0,0-6.54-4.3,21,21,0,0,0,6.38-3.46,25.43,25.43,0,0,0,5-5.25,24.34,24.34,0,0,0,3.26-6.48,22.64,22.64,0,0,0,1.16-7.22,24.31,24.31,0,0,0-1.91-9.66,23.5,23.5,0,0,0-5.3-7.75,24.47,24.47,0,0,0-8.06-5.15,26.86,26.86,0,0,0-10.06-1.86l-33.5.12,0,84.84h16.25V616.75H687a18.39,18.39,0,0,1,6.62,1.06,13.89,13.89,0,0,1,4.82,3,17.9,17.9,0,0,1,3.45,4.56,31,31,0,0,1,2.38,5.84l6.05,19.33h18.12A29.57,29.57,0,0,1,726.3,646.1Zm-20.4-49.59a12.34,12.34,0,0,1-3,4.09,13.12,13.12,0,0,1-4.52,2.6,16.64,16.64,0,0,1-5.57.91H680.9V577.67h11.89a15.4,15.4,0,0,1,5.58,1,13.71,13.71,0,0,1,4.51,2.81,13.46,13.46,0,0,1,3,4.25,12.92,12.92,0,0,1,1.11,5.41A12.42,12.42,0,0,1,705.9,596.51Zm110.92,38.36a46.32,46.32,0,0,1-16.72,13.06,43.87,43.87,0,0,1-9.45,3.14,47.05,47.05,0,0,1-9.61,1,46.34,46.34,0,0,1-17.73-3.39,45.46,45.46,0,0,1-14.45-9.34,44.8,44.8,0,0,1-9.77-14,43.38,43.38,0,0,1-.06-34.56,43.57,43.57,0,0,1,9.76-14,46.61,46.61,0,0,1,14.49-9.4A45.47,45.47,0,0,1,781,564a44.17,44.17,0,0,1,19.91,4.45,47.17,47.17,0,0,1,15.24,11.89L805,591.66a28.73,28.73,0,0,0-10.71-9.29,30.51,30.51,0,0,0-13.25-2.81,28.94,28.94,0,0,0-11.35,2.23,29.55,29.55,0,0,0-9.27,6.11,28.6,28.6,0,0,0-6.25,9,27.87,27.87,0,0,0,0,22.08,29.43,29.43,0,0,0,6.26,9.08,29.15,29.15,0,0,0,20.61,8.38,27.67,27.67,0,0,0,10.8-2.13,33.25,33.25,0,0,0,9.12-5.63v-8.17H783.58v-14h33.23Z"/>
      <g>
        <path class="cls-6" d="M516.27,578.07a31.22,31.22,0,0,1,12.25,2.38,31.65,31.65,0,0,1,10.12,6.62,31,31,0,0,1,6.81,9.86,30.19,30.19,0,0,1,0,23.71,30.38,30.38,0,0,1-6.76,9.8,32.9,32.9,0,0,1-10.21,6.68,30.7,30.7,0,0,1-12.2,2.4A31.16,31.16,0,0,1,504,637.11a32.73,32.73,0,0,1-10.24-6.67,30.59,30.59,0,0,1-6.78-9.77,30.55,30.55,0,0,1,0-23.81,30.46,30.46,0,0,1,6.77-9.8,31.93,31.93,0,0,1,10.18-6.6,31.58,31.58,0,0,1,12.33-2.39m0-12a44.4,44.4,0,0,0-30.85,12.36A42.6,42.6,0,0,0,476,592a42.52,42.52,0,0,0,0,33.51,42.78,42.78,0,0,0,9.41,13.53,44.66,44.66,0,0,0,13.94,9.12,44.35,44.35,0,0,0,33.77,0A44.9,44.9,0,0,0,547,639.06a42.48,42.48,0,0,0,9.4-13.58,42.17,42.17,0,0,0,0-33.41,43.3,43.3,0,0,0-9.4-13.59,43.91,43.91,0,0,0-30.75-12.41Z"/>
        <circle class="cls-7" cx="516.1" cy="608.8" r="16.36"/>
      </g>
      <g>
        <path class="cls-3" d="M171.86,862.34h-10v29.83h-7.08V862.34h-10v-6.23h27Z"/>
        <path class="cls-3" d="M183.37,892.17h-7V856.11h7Z"/>
        <path class="cls-3" d="M226.15,892.17h-6.86v-24.1l-11.37,19.18L197,867.89v24.28h-6.86v-36.1H198l10,17.91,10.47-17.91h7.62Z"/>
        <path class="cls-3" d="M256.75,892.17H232.92V856.11h23.83v5.78h-17v8.62h16.74v5.64H239.78v9.93h17Z"/>
        <path class="cls-3" d="M301.15,862.34h-10v29.83h-7.09V862.34h-10v-6.23h27Z"/>
        <path class="cls-3" d="M340.59,874.12a17.89,17.89,0,0,1-1.51,7.31,18.6,18.6,0,0,1-4.12,6,19.73,19.73,0,0,1-6.09,4,18.71,18.71,0,0,1-7.39,1.47,18.92,18.92,0,0,1-7.41-1.47,19.7,19.7,0,0,1-6.11-4,18.73,18.73,0,0,1-4.12-5.94,17.81,17.81,0,0,1-1.51-7.33,18,18,0,0,1,1.51-7.36,18.56,18.56,0,0,1,4.12-6,19.49,19.49,0,0,1,13.52-5.42,19.06,19.06,0,0,1,17.6,11.4A17.81,17.81,0,0,1,340.59,874.12Zm-7,0a11.68,11.68,0,0,0-1-4.67,12.24,12.24,0,0,0-2.6-3.84,12.51,12.51,0,0,0-3.87-2.61,11.5,11.5,0,0,0-4.7-1,11.67,11.67,0,0,0-4.75,1,12.59,12.59,0,0,0-3.86,2.61,12.24,12.24,0,0,0-2.6,3.84,11.9,11.9,0,0,0,0,9.32,12.21,12.21,0,0,0,2.6,3.86,12.59,12.59,0,0,0,3.86,2.61,11.67,11.67,0,0,0,4.75,1,11.5,11.5,0,0,0,4.7-1,12.51,12.51,0,0,0,3.87-2.61,12.21,12.21,0,0,0,2.6-3.86A11.76,11.76,0,0,0,333.6,874.12Z"/>
        <path class="cls-3" d="M393.26,885.67a20.21,20.21,0,0,1-6.57,5.24,18.71,18.71,0,0,1-8.51,1.94,19.33,19.33,0,0,1-7.53-1.47,19.56,19.56,0,0,1-6.13-4,18.84,18.84,0,0,1-4.1-5.94,18.55,18.55,0,0,1,0-14.66,18.71,18.71,0,0,1,10.23-9.95,19.5,19.5,0,0,1,7.53-1.45,18.71,18.71,0,0,1,8.51,1.94,19.7,19.7,0,0,1,6.43,5.06l-4.83,5a12.73,12.73,0,0,0-4.31-3.86,12.21,12.21,0,0,0-10.56-.49,12.42,12.42,0,0,0-6.54,6.45,11.63,11.63,0,0,0,0,9.3,12.48,12.48,0,0,0,2.64,3.83,12.68,12.68,0,0,0,3.9,2.62,11.78,11.78,0,0,0,4.76,1,11.46,11.46,0,0,0,5.92-1.51,13.4,13.4,0,0,0,4.28-4Z"/>
        <path class="cls-3" d="M425.12,892.17h-7v-16H403.91v16h-7V856.11h7v14.31h14.21V856.11h7Z"/>
        <path class="cls-3" d="M468.3,892.17h-7.67L457.29,885H439.78l-3.38,7.22h-7.67l17.06-36.1h5.46Zm-13.76-13-6-13-6.09,13Z"/>
        <path class="cls-3" d="M501.92,892.17h-6.86l-16.29-25.32v25.32h-6.86v-36.1h7.86l15.29,23.56V856.07h6.86Z"/>
        <path class="cls-3" d="M541.91,885.54a20.19,20.19,0,0,1-3.34,3.27,19.93,19.93,0,0,1-3.77,2.28,19.14,19.14,0,0,1-4,1.33,20.06,20.06,0,0,1-11.62-1,18.9,18.9,0,0,1-10.29-9.92,18,18,0,0,1-1.53-7.4,17.73,17.73,0,0,1,1.51-7.29,18.66,18.66,0,0,1,4.15-5.94,20.05,20.05,0,0,1,6.16-4,19.38,19.38,0,0,1,7.54-1.47,18.65,18.65,0,0,1,8.46,1.9,20.12,20.12,0,0,1,6.48,5.05l-4.74,4.83a12.25,12.25,0,0,0-4.55-3.95,12.94,12.94,0,0,0-5.63-1.19,12.33,12.33,0,0,0-4.82.94,12.75,12.75,0,0,0-3.94,2.6,12.32,12.32,0,0,0-2.66,3.83,11.85,11.85,0,0,0,0,9.39,12.45,12.45,0,0,0,6.6,6.48,12.29,12.29,0,0,0,4.82.94,11.81,11.81,0,0,0,4.59-.9,14.18,14.18,0,0,0,3.87-2.39v-3.47h-7.4v-6h14.13Z"/>
        <path class="cls-3" d="M571.15,892.17H547.32V856.11h23.83v5.78h-17v8.62h16.74v5.64H554.18v9.93h17Z"/>
        <path class="cls-3" d="M614.61,892.17H590.78V856.11h23.83v5.78h-17v8.62h16.74v5.64H597.64v9.93h17Z"/>
        <path class="cls-3" d="M651.65,856.07v19.58a20.42,20.42,0,0,1-1.08,6.73,16.28,16.28,0,0,1-3.13,5.44,14.61,14.61,0,0,1-5,3.65,17.74,17.74,0,0,1-13.43,0,14.94,14.94,0,0,1-5.08-3.58,16,16,0,0,1-3.22-5.37,19.32,19.32,0,0,1-1.13-6.66V856.07h7v19.85a12.75,12.75,0,0,0,.59,3.91,9.21,9.21,0,0,0,1.72,3.18,7.94,7.94,0,0,0,2.82,2.14,8.92,8.92,0,0,0,3.85.79,9.82,9.82,0,0,0,4-.74,7.53,7.53,0,0,0,2.8-2.08A9.21,9.21,0,0,0,644,880a13.51,13.51,0,0,0,.56-4V856.07Z"/>
        <path class="cls-3" d="M684.64,892.17h-7.7L674.37,884a12.61,12.61,0,0,0-1-2.48,7.38,7.38,0,0,0-1.46-1.94,5.87,5.87,0,0,0-2-1.27,8,8,0,0,0-2.81-.45h-2.61v14.35h-6.91V856.11l14.24,0a11.43,11.43,0,0,1,4.28.79,10.45,10.45,0,0,1,3.42,2.19,10,10,0,0,1,2.25,3.29,10.36,10.36,0,0,1,.81,4.11,9.72,9.72,0,0,1-.49,3.07,10.31,10.31,0,0,1-1.39,2.75,10.72,10.72,0,0,1-2.13,2.23A8.93,8.93,0,0,1,675.8,876a6.9,6.9,0,0,1,2.78,1.83,9.12,9.12,0,0,1,1.7,2.86c.21.51.41,1,.58,1.54s.37,1,.56,1.6.41,1.16.63,1.8.47,1.37.74,2.15q.5,1.49.93,2.55A12.07,12.07,0,0,0,684.64,892.17Zm-9.11-25.23a5.44,5.44,0,0,0-.48-2.3,5.63,5.63,0,0,0-1.28-1.8,5.89,5.89,0,0,0-1.92-1.2,6.65,6.65,0,0,0-2.37-.43h-5.05v11.24h5.05a7.36,7.36,0,0,0,2.37-.38,5.69,5.69,0,0,0,1.92-1.11,5.3,5.3,0,0,0,1.76-4Z"/>
        <path class="cls-3" d="M725.89,874.12a17.89,17.89,0,0,1-1.51,7.31,18.63,18.63,0,0,1-4.13,6,19.8,19.8,0,0,1-6.08,4,19.39,19.39,0,0,1-14.81,0,19.82,19.82,0,0,1-6.11-4,18.9,18.9,0,0,1-4.12-5.94,17.81,17.81,0,0,1-1.51-7.33,18,18,0,0,1,1.51-7.36,18.71,18.71,0,0,1,4.12-6,19.49,19.49,0,0,1,13.53-5.42,19.1,19.1,0,0,1,17.6,11.4A17.81,17.81,0,0,1,725.89,874.12Zm-7,0a11.51,11.51,0,0,0-.95-4.67,12.24,12.24,0,0,0-2.6-3.84,12.47,12.47,0,0,0-3.86-2.61,12,12,0,0,0-9.45,0,12.25,12.25,0,0,0-6.47,6.45,12,12,0,0,0,0,9.32,12.38,12.38,0,0,0,2.6,3.86,12.51,12.51,0,0,0,3.87,2.61,12,12,0,0,0,9.45,0,12.47,12.47,0,0,0,3.86-2.61,12.21,12.21,0,0,0,2.6-3.86A11.58,11.58,0,0,0,718.89,874.12Z"/>
        <path class="cls-3" d="M756.67,868.21a11.84,11.84,0,0,1-1,4.8,12.4,12.4,0,0,1-2.64,3.89,12.27,12.27,0,0,1-3.94,2.57,12.68,12.68,0,0,1-4.79.92h-6v11.78h-7V856.11h13a12.54,12.54,0,0,1,8.73,3.48,12,12,0,0,1,2.64,3.83A11.76,11.76,0,0,1,756.67,868.21Zm-7-.09a6.67,6.67,0,0,0-1.94-4.74,7,7,0,0,0-2.12-1.44,6.25,6.25,0,0,0-2.62-.55h-4.65V875H743a6.11,6.11,0,0,0,2.62-.56,7,7,0,0,0,2.12-1.51,7.12,7.12,0,0,0,1.42-2.19A6.72,6.72,0,0,0,749.67,868.12Z"/>
        <path class="cls-3" d="M785,892.17H761.13V856.11H785v5.78H768v8.62h16.74v5.64H768v9.93h17Z"/>
      </g>
    </g>
  </g>
</svg>
