<svg xmlns="http://www.w3.org/2000/svg" xmlns:xlink="http://www.w3.org/1999/xlink" width="601.67mm" height="204.51mm" viewBox="0 0 1705.52 579.71">
  <defs>
    <style>
      .cls-1 {
        fill: url(#Dégradé_sans_nom_125);
      }

      .cls-2 {
        fill: url(#Dégradé_sans_nom_10);
      }

      .cls-3 {
        fill: url(#Dégradé_sans_nom_10-2);
      }

      .cls-4 {
        fill: url(#Dégradé_sans_nom_125-2);
      }

      .cls-5 {
        fill: url(#Dégradé_sans_nom_25);
      }

      .cls-6 {
        fill: #114f9e;
      }

      .cls-7 {
        fill: #fff;
      }
    </style>
    <linearGradient id="Dégradé_sans_nom_125" data-name="Dégradé sans nom 125" x1="1325.86" y1="263.7" x2="1325.86" y2="155.27" gradientUnits="userSpaceOnUse">
      <stop offset="0" stop-color="#d9a101"/>
      <stop offset="0.09" stop-color="#e2af0d"/>
      <stop offset="0.25" stop-color="#eec41f"/>
      <stop offset="0.44" stop-color="#f7d32b"/>
      <stop offset="0.66" stop-color="#fcdb33"/>
      <stop offset="1" stop-color="#fede35"/>
    </linearGradient>
    <linearGradient id="Dégradé_sans_nom_10" data-name="Dégradé sans nom 10" x1="1304.94" y1="209.48" x2="1346.46" y2="209.48" gradientUnits="userSpaceOnUse">
      <stop offset="0" stop-color="#18509f"/>
      <stop offset="0.48" stop-color="#184f9d"/>
      <stop offset="0.66" stop-color="#194c96"/>
      <stop offset="0.78" stop-color="#1b468b"/>
      <stop offset="0.88" stop-color="#1d3e7a"/>
      <stop offset="0.97" stop-color="#203464"/>
      <stop offset="1" stop-color="#212f59"/>
    </linearGradient>
    <linearGradient id="Dégradé_sans_nom_10-2" x1="839.77" y1="26.47" x2="1556.6" y2="600.1" gradientTransform="translate(0.52 -4.06) rotate(0.16)" xlink:href="#Dégradé_sans_nom_10"/>
    <linearGradient id="Dégradé_sans_nom_125-2" x1="489.23" y1="515" x2="232.06" y2="69.56" xlink:href="#Dégradé_sans_nom_125"/>
    <linearGradient id="Dégradé_sans_nom_25" data-name="Dégradé sans nom 25" y1="228.92" x2="459.71" y2="228.92" gradientUnits="userSpaceOnUse">
      <stop offset="0" stop-color="#18509f"/>
      <stop offset="0.16" stop-color="#1a488e"/>
      <stop offset="0.5" stop-color="#1e3a71"/>
      <stop offset="0.79" stop-color="#20325f"/>
      <stop offset="1" stop-color="#212f59"/>
    </linearGradient>
  </defs>
  <g id="Calque_2" data-name="Calque 2">
    <g id="Calque_1-2" data-name="Calque 1">
      <g>
        <g>
          <path class="cls-1" d="M1325.93,171.27a39,39,0,0,1,15.24,2.95,39.45,39.45,0,0,1,12.6,8.25,38.83,38.83,0,0,1,8.48,12.27,37.55,37.55,0,0,1,0,29.46,37.84,37.84,0,0,1-8.41,12.19,40.64,40.64,0,0,1-12.72,8.32,38.24,38.24,0,0,1-15.17,3,38.71,38.71,0,0,1-15.28-3,40.64,40.64,0,0,1-12.75-8.31,38,38,0,0,1-8.43-12.16,35.6,35.6,0,0,1-3-14.75,36.19,36.19,0,0,1,3-14.84,38,38,0,0,1,8.42-12.19,40.28,40.28,0,0,1,28-11.18m0-16A56.23,56.23,0,0,0,1286.78,171a54.25,54.25,0,0,0-11.94,17.24,53.9,53.9,0,0,0,0,42.52,54.32,54.32,0,0,0,11.94,17.18,56.82,56.82,0,0,0,17.68,11.56,56.15,56.15,0,0,0,42.86,0,57,57,0,0,0,17.62-11.56,54.14,54.14,0,0,0,11.94-17.24,53.58,53.58,0,0,0,0-42.39A55.2,55.2,0,0,0,1364.94,171a55.64,55.64,0,0,0-39-15.74Z"/>
          <circle class="cls-2" cx="1325.7" cy="209.48" r="20.76"/>
        </g>
        <path class="cls-3" d="M789.51,236.17A25.54,25.54,0,0,1,787,247.34a29.45,29.45,0,0,1-7.12,9.34A35.33,35.33,0,0,1,769,263.15a38.25,38.25,0,0,1-13.85,2.42,86.24,86.24,0,0,1-12.21-.78,52.55,52.55,0,0,1-10.19-2.48,49.19,49.19,0,0,1-9.15-4.37,86.13,86.13,0,0,1-9.08-6.47L728.89,237a41.51,41.51,0,0,0,12.29,7.38,38.56,38.56,0,0,0,13.06,2.15,16.91,16.91,0,0,0,5.42-.85,15.26,15.26,0,0,0,4.44-2.29,11,11,0,0,0,3-3.4,8.57,8.57,0,0,0,1.11-4.31,10.37,10.37,0,0,0-.92-4.44,10.77,10.77,0,0,0-3.26-3.79,32.92,32.92,0,0,0-6.54-3.72q-4.18-1.89-10.71-4.24a97.66,97.66,0,0,1-11-4.77,38.5,38.5,0,0,1-9.28-6.46,29.74,29.74,0,0,1-6.4-8.88,27.7,27.7,0,0,1-2.42-12,28.05,28.05,0,0,1,2.67-12.28,28.86,28.86,0,0,1,7.31-9.61,34.36,34.36,0,0,1,10.85-6.21A39.44,39.44,0,0,1,751.87,157q12,0,20.25,3.13a44.3,44.3,0,0,1,14.63,9.14l-14.11,14.24a28.27,28.27,0,0,0-8.75-5.81,29.46,29.46,0,0,0-11.37-2,16.32,16.32,0,0,0-5.55.92A14.59,14.59,0,0,0,742.6,179a11.94,11.94,0,0,0-2.94,3.52,8.73,8.73,0,0,0-1.11,4.25,9.76,9.76,0,0,0,1,4.51,12.28,12.28,0,0,0,3.53,3.92,35.72,35.72,0,0,0,6.6,3.78c2.75,1.26,6.16,2.64,10.26,4.11a78.35,78.35,0,0,1,13.46,6,37.74,37.74,0,0,1,9.14,7.18,25.55,25.55,0,0,1,5.23,8.82A33.63,33.63,0,0,1,789.51,236.17Zm86.08-58.94H846.72l0,86.36H826.23l0-86.35H797.33v-18l78.25,0Zm91.6,86.32h-22.3l-7.43-23.77a38.88,38.88,0,0,0-2.94-7.19,22.11,22.11,0,0,0-4.23-5.62,17.68,17.68,0,0,0-5.93-3.65,23.06,23.06,0,0,0-8.15-1.31h-7.56v41.54h-20l0-104.39,41.2-.14a33,33,0,0,1,12.39,2.29,30,30,0,0,1,9.92,6.33,29.24,29.24,0,0,1,6.52,9.53A30,30,0,0,1,961,189.09,28.08,28.08,0,0,1,959.6,198a29.71,29.71,0,0,1-4,8,31,31,0,0,1-6.16,6.47,25.91,25.91,0,0,1-7.85,4.25,19.91,19.91,0,0,1,8,5.29,26,26,0,0,1,4.94,8.29q.9,2.23,1.68,4.45l1.63,4.63q.84,2.43,1.82,5.23t2.14,6.2q1.44,4.32,2.68,7.38A36.5,36.5,0,0,0,967.19,263.55Zm-26.41-73a16,16,0,0,0-1.37-6.66,16.66,16.66,0,0,0-3.73-5.22,17,17,0,0,0-5.55-3.47,19,19,0,0,0-6.86-1.23H908.64v32.53h14.63a20.56,20.56,0,0,0,6.86-1.12,16.22,16.22,0,0,0,5.55-3.2,15.17,15.17,0,0,0,3.72-5A15.49,15.49,0,0,0,940.78,190.53Zm144.38,73H1063l-9.68-20.9h-50.68l-9.8,20.91H970.58L1019.94,159h15.81Zm-39.86-37.74-17.38-37.62-17.63,37.63Zm120.06,10.29a25.44,25.44,0,0,1-2.54,11.17,29.56,29.56,0,0,1-7.12,9.34,35.33,35.33,0,0,1-10.84,6.47,38.25,38.25,0,0,1-13.85,2.42,86.24,86.24,0,0,1-12.21-.78,52.55,52.55,0,0,1-10.19-2.48,48.89,48.89,0,0,1-9.15-4.37,87.18,87.18,0,0,1-9.08-6.47l14.37-14.51a40.93,40.93,0,0,0,12.28,7.38,38.07,38.07,0,0,0,13.06,2.15,17.14,17.14,0,0,0,5.42-.84,15.45,15.45,0,0,0,4.45-2.29,11.14,11.14,0,0,0,3-3.4,8.59,8.59,0,0,0,1.11-4.31,10.33,10.33,0,0,0-.92-4.44,10.77,10.77,0,0,0-3.26-3.79,32.92,32.92,0,0,0-6.54-3.72q-4.18-1.89-10.71-4.24a102.27,102.27,0,0,1-11-4.77,38.78,38.78,0,0,1-9.28-6.46,29.65,29.65,0,0,1-6.4-8.89,27.62,27.62,0,0,1-2.42-12,28.27,28.27,0,0,1,2.67-12.29,29,29,0,0,1,7.32-9.6,34,34,0,0,1,10.84-6.21,39.44,39.44,0,0,1,13.39-2.22q12,0,20.25,3.13a44.13,44.13,0,0,1,14.63,9.14l-14.11,14.24a28.27,28.27,0,0,0-8.75-5.81,29.26,29.26,0,0,0-11.36-2,16.58,16.58,0,0,0-5.56.91,14.94,14.94,0,0,0-4.37,2.42,12.11,12.11,0,0,0-2.94,3.53,8.73,8.73,0,0,0-1.11,4.25,9.63,9.63,0,0,0,1,4.5,12,12,0,0,0,3.52,3.92,35.14,35.14,0,0,0,6.6,3.79c2.75,1.26,6.16,2.63,10.26,4.11a78.35,78.35,0,0,1,13.46,6,37.5,37.5,0,0,1,9.14,7.18,25.39,25.39,0,0,1,5.23,8.82A33.58,33.58,0,0,1,1165.36,236.07Zm88.84-2.51a27.34,27.34,0,0,1-2.68,12.08,30.32,30.32,0,0,1-7.11,9.54,32.77,32.77,0,0,1-10.26,6.21,34.19,34.19,0,0,1-12.21,2.23l-42.2-.12,0-104.52h37.63a38,38,0,0,1,12.6,2,29.38,29.38,0,0,1,10.13,5.87,26.71,26.71,0,0,1,6.73,9.41,31,31,0,0,1,2.42,12.47,26.19,26.19,0,0,1-2.61,11.37,28.39,28.39,0,0,1-6.92,9.27,24.46,24.46,0,0,1,6.08,4.31,28.21,28.21,0,0,1,4.57,5.82,27.62,27.62,0,0,1,3.86,14Zm-25-44.41a13.83,13.83,0,0,0-1.44-6.53,13.57,13.57,0,0,0-3.85-4.58,17.15,17.15,0,0,0-5.55-2.74,23.64,23.64,0,0,0-6.54-.91H1200v28.75q3.27.12,5.88.12h6a27,27,0,0,0,6.53-.78,16.51,16.51,0,0,0,5.55-2.49,12.42,12.42,0,0,0,3.86-4.37A13.5,13.5,0,0,0,1229.23,189.15Zm3.93,43.24a14.37,14.37,0,0,0-1.24-6,13.55,13.55,0,0,0-3.4-4.64,15.82,15.82,0,0,0-5-2.94,17.49,17.49,0,0,0-6.08-1q-4.44-.12-8.75-.06c-2.87,0-5.79.07-8.75.07v28.87h15.16a28,28,0,0,0,6.53-.78,17.08,17.08,0,0,0,5.81-2.55,14,14,0,0,0,4.12-4.44A12.55,12.55,0,0,0,1233.16,232.39ZM839.49,427.63a45.64,45.64,0,0,1-4.62,20A53,53,0,0,1,822,464.41,63.4,63.4,0,0,1,802.54,476a68.5,68.5,0,0,1-24.87,4.28,153.22,153.22,0,0,1-21.92-1.47,94.18,94.18,0,0,1-18.28-4.5,87.12,87.12,0,0,1-16.4-7.9,156.14,156.14,0,0,1-16.27-11.65l25.87-26q11.22,9.42,22,13.31A68.87,68.87,0,0,0,776.12,446a30.52,30.52,0,0,0,9.74-1.5,27,27,0,0,0,8-4.08,19.82,19.82,0,0,0,5.41-6.09,15.37,15.37,0,0,0,2-7.73,18.9,18.9,0,0,0-1.62-8,19.4,19.4,0,0,0-5.85-6.82,59.56,59.56,0,0,0-11.71-6.71q-7.5-3.42-19.21-7.67a179.74,179.74,0,0,1-19.8-8.61,69.83,69.83,0,0,1-16.62-11.65,53.27,53.27,0,0,1-11.45-16q-4.32-9.17-4.28-21.59a50.62,50.62,0,0,1,4.86-22,52,52,0,0,1,13.18-17.2,61,61,0,0,1,19.5-11.09,70.84,70.84,0,0,1,24.05-3.93q21.57.06,36.33,5.73a79,79,0,0,1,26.23,16.48L809.48,333a51,51,0,0,0-15.68-10.48,52.74,52.74,0,0,0-20.4-3.68,29.41,29.41,0,0,0-10,1.61,26.31,26.31,0,0,0-7.87,4.32,21.48,21.48,0,0,0-5.29,6.32,15.63,15.63,0,0,0-2,7.62,17.37,17.37,0,0,0,1.86,8.09,21.74,21.74,0,0,0,6.31,7.06,64,64,0,0,0,11.83,6.83q7.38,3.42,18.39,7.43A141.07,141.07,0,0,1,810.77,379,67.74,67.74,0,0,1,827.16,392a45.94,45.94,0,0,1,9.34,15.85A60.48,60.48,0,0,1,839.49,427.63Zm190.57-137.88-.26,101.78a105.88,105.88,0,0,1-5.72,34.94,83.94,83.94,0,0,1-16.38,28.22,75.78,75.78,0,0,1-26.08,18.92q-15.37,6.88-35.08,6.83-19.23,0-34.69-6.89a78.1,78.1,0,0,1-26.34-18.71,82.37,82.37,0,0,1-16.7-28A100.14,100.14,0,0,1,863,392.27l.26-103,36.36.1-.27,103.19a65.85,65.85,0,0,0,3,20.3,48.64,48.64,0,0,0,8.87,16.56,41.52,41.52,0,0,0,14.63,11.17,46.73,46.73,0,0,0,20,4.16q12,0,20.77-3.81a39,39,0,0,0,14.56-10.76A47.05,47.05,0,0,0,990,414a69,69,0,0,0,3-20.63l.27-103.67Zm217.16,188.19-35.65-.09.33-125.24-59.36,99.52L1096,351.37l-.33,126.18-35.65-.1.49-187.62,41,.1,51.83,93.25,54.65-93,39.64.1Zm222.34.58-35.65-.09.33-125.25-59.36,99.53-56.5-100.77-.33,126.18L1282.4,478l.49-187.63,41,.11,51.83,93.24,54.65-93,39.64.11Zm71.53.18-36.35-.09.49-187.4,36.35.1Zm164.35-154.6L1653.6,324l-.4,155-36.82-.09.4-155-51.83-.14.08-32.36,140.49.37ZM1493.78,159v56.7a58.88,58.88,0,0,1-3.13,19.47,46.58,46.58,0,0,1-9.07,15.74,42.28,42.28,0,0,1-14.5,10.59,51.29,51.29,0,0,1-38.87.07,43.36,43.36,0,0,1-14.7-10.38,45.62,45.62,0,0,1-9.34-15.54,55.94,55.94,0,0,1-3.28-19.27V159h20.25v57.49a36.87,36.87,0,0,0,1.7,11.3,27.29,27.29,0,0,0,5,9.2,23.15,23.15,0,0,0,8.17,6.21,26.2,26.2,0,0,0,11.17,2.28,28.46,28.46,0,0,0,11.56-2.16,21.74,21.74,0,0,0,8.1-6,26.35,26.35,0,0,0,4.83-9.08,38.37,38.37,0,0,0,1.63-11.5l0-57.74ZM1586.62,258c-.83-2-1.72-4.51-2.68-7.38q-1.17-3.39-2.14-6.2t-1.82-5.23c-.56-1.61-1.11-3.16-1.63-4.64s-1.08-3-1.68-4.44a26,26,0,0,0-4.94-8.29,19.91,19.91,0,0,0-8-5.29,26,26,0,0,0,7.85-4.25,31,31,0,0,0,6.16-6.47,30,30,0,0,0,4-8,28.08,28.08,0,0,0,1.43-8.88,30,30,0,0,0-2.35-11.89,29.18,29.18,0,0,0-6.52-9.54,30.26,30.26,0,0,0-9.91-6.33A33.28,33.28,0,0,0,1552,159l-41.21.14,0,104.38h20V221.93h7.56a23.06,23.06,0,0,1,8.15,1.31,17.42,17.42,0,0,1,5.93,3.65,22.11,22.11,0,0,1,4.23,5.62,38.38,38.38,0,0,1,2.94,7.18l7.43,23.78h22.3A37,37,0,0,1,1586.62,258Zm-25.1-61a15.17,15.17,0,0,1-3.72,5,16.38,16.38,0,0,1-5.55,3.2,20.82,20.82,0,0,1-6.86,1.11h-14.63V173.86h14.63a19,19,0,0,1,6.86,1.24,16.57,16.57,0,0,1,9.28,8.69,15.9,15.9,0,0,1,1.37,6.66A15.34,15.34,0,0,1,1561.52,197ZM1698,244.23a56.45,56.45,0,0,1-9.67,9.47,57.6,57.6,0,0,1-10.9,6.6,54.18,54.18,0,0,1-11.63,3.86A57.48,57.48,0,0,1,1654,265.4a56.82,56.82,0,0,1-21.82-4.17,55.79,55.79,0,0,1-17.77-11.49,55,55,0,0,1-12-17.24,53.48,53.48,0,0,1-.08-42.53,53.57,53.57,0,0,1,12-17.18,57.72,57.72,0,0,1,17.83-11.57,56.17,56.17,0,0,1,21.82-4.25,54.35,54.35,0,0,1,24.49,5.48,58.07,58.07,0,0,1,18.76,14.63l-13.7,14a35.46,35.46,0,0,0-13.17-11.43,37.57,37.57,0,0,0-16.3-3.45,35.61,35.61,0,0,0-14,2.74,36.36,36.36,0,0,0-11.41,7.52,35.36,35.36,0,0,0-7.69,11.1,34.38,34.38,0,0,0,0,27.18,35.95,35.95,0,0,0,19.11,18.74,35.53,35.53,0,0,0,14,2.74,34,34,0,0,0,13.29-2.62,41,41,0,0,0,11.21-6.92V226.6h-21.43V209.36H1698Z"/>
      </g>
      <g>
        <circle class="cls-4" cx="360.65" cy="292.28" r="257.14"/>
        <path class="cls-5" d="M430.14,142.51C371,66.8,360-5.2,255.67,118.91c-15.43,18.36-73.13,44.75-102.83,40.28C65.54,146,0,251.35,0,251.34S24,391.85,80.31,405.16C109.05,412,119.76,379.38,185,358.72c44.8-14.2,68.63-8,101.86-12.08,43.93-5.42,103.67-25.36,172.87-107.9C459.12,212.34,454.09,173.17,430.14,142.51ZM189.05,181.82l5.57,6.81,8.79-3.25-5.39,7.5,5.63,6.87-8.8-2.16L189.56,205l-.18-8.93-8.88-2.18,8.74-3.23Zm-17.16,34.51,5.55,6.76,8.7-3.21-5.3,7.39,5.59,6.83-8.82-2.2-5.28,7.4-.19-8.85-8.78-2.16,8.67-3.2Zm3.32,60.34-.17-8.82-8.84-2.17,8.69-3.21-.18-8.8,5.58,6.81,8.69-3.21-5.25,7.31,5.54,6.91-8.77-2.18Zm22.08,30.25-.18-8.85-8.8-2.16,8.68-3.2-.15-8.77,5.55,6.77,8.7-3.21-5.3,7.39,5.59,6.83-8.81-2.17Zm15.83-135.39,8.7-3.21-.18-8.79,5.56,6.81,8.7-3.21-5.29,7.38,5.57,6.79-8.78-2.16-5.28,7.35L222,173.7ZM232.74,322l-.18-8.82L223.72,311l8.72-3.22-.18-8.84,5.61,6.84,8.76-3.24L241.27,310l5.56,6.78L238,314.6Zm19.55-154.62,8.78-3.24-.18-8.79,5.56,6.8,8.75-3.22-5.33,7.43,5.66,6.91-8.81-2.17-5.28,7.37-.18-8.88Zm19.76,150.42-.18-8.82L263,306.77l8.72-3.22-.18-8.7,5.52,6.73,8.72-3.22-5.3,7.4,5.59,6.82-8.78-2.16Zm60.69-113.54-5.31,7.39,5.59,6.82-8.78-2.15L319,223.62l-.27-8.85L310,212.63l8.69-3.21-.18-8.8,5.58,6.81Zm-36.39-33.83,5.58,6.76,8.68-3.2-5.28,7.34,5.61,6.86-8.82-2.2-5.28,7.4-.19-8.82-8.82-2.17,8.8-3.25Zm8.27,125.05-.18-8.77-8.93-2.2,8.77-3.23-.18-8.84,5.61,6.84,8.72-3.22-5.31,7.39,5.59,6.82-8.8-2.16ZM321.8,261l-.18-8.82L312.78,250l8.8-3.24-.27-8.72,5.58,6.76,8.67-3.2-5.28,7.35,5.61,6.85-8.8-2.17Z"/>
        <path class="cls-6" d="M460.07,241.66a7.89,7.89,0,0,1-.36,2.38,15.66,15.66,0,0,1-4.42-6.32c-1.29-2.87-3.37-4.48-5.87-6.22a61.91,61.91,0,0,0-14.62-7.56,4.29,4.29,0,0,1-2.09-1.57c-4.44-6.94-11.32-9.33-18.25-11.41-3.95-1.19-7.8-3-12.14-2.62-1.33.12-2.91-1-4.11-1.92-4.22-3.33-8.29-6.91-12.51-10.26a14.73,14.73,0,0,0-5.08-3c-7.89-2-15.86-3.48-24.05-2.33a4.53,4.53,0,0,1-1.29.19c-10.27-1.77-20.95-1.84-29.78-9.24a30.69,30.69,0,0,0-8.18-4.38,36.18,36.18,0,0,1-17.8-15c-3.58-5.92-8.34-10.35-14.81-12.17A33.32,33.32,0,0,0,279,149c-3.7-.36-7.43-.38-11.12-.79-1.42-.16-2.76-1-4.64-1.77,3.87-8.11,7.6-15.71,11.16-23.41,3.46-7.48,6.75-15.05,10.12-22.58C312.81,37.1,318.27-.59,327.9,0c30.88,21.19,72.79,35.19,85.21,26.16,18.31-13.32,69.31,33.41,64.65,46.9"/>
        <g>
          <g>
            <rect class="cls-7" x="206.09" y="151.3" width="12.62" height="343.4" transform="translate(121.83 -52.82) rotate(19.78)"/>
            <path class="cls-7" d="M160.24,486.71c-.81,2.51-4,3.7-7.39,2.63s-5.36-4.14-4.55-6.65,4.11-3.52,7.46-2.45S161,484.19,160.24,486.71Z"/>
          </g>
          <path class="cls-7" d="M277,151a5.14,5.14,0,0,0,2.94,2.09,11.25,11.25,0,0,1,5.42,3.7,11.36,11.36,0,0,0,1.12.94c3.13,2.51,5.11,5.94,6.9,9.38,1.57,3,2.44,6.36,3.62,9.56,1.75,4.76,3.24,9.55,2.78,14.74-.16,1.89,0,3.81-.05,5.71a23.79,23.79,0,0,0,1.43,8.77,71.23,71.23,0,0,1,2.77,9,103,103,0,0,0,4.93,16.64,2.88,2.88,0,0,0,.83,1.18,24.4,24.4,0,0,1,4.1,5.23,42.3,42.3,0,0,0,2.59,3.75,56,56,0,0,1,6.41,9.6c3.39,6.43,6.4,13.07,9.6,19.61,1.58,3.22,3,6.5,4.32,9.84s2.24,6.78,4.51,9.52c2.6,3.14,3.33,6.8,4,10.61.37,2.21,0,4.46.45,6.64a34.43,34.43,0,0,0,9.72,17.87c2.11,2.05,4.47,3.94,5.34,7,1.59,3,3.67,5.62,5.53,8.4,2.2,3.3,4.51,6.58,6,10.27a71.21,71.21,0,0,0,16.88,24.88c.27.26.63.41.92.65,2.36,2,5.44,2.8,8,4.6a77,77,0,0,1,17.52,17.32c.83,1.13,1.65,2.23,1.53,3.76,1.23-.36,1.62-2,3.15-1.55,3.06.88,5.51-.32,7.63-2.44a1.93,1.93,0,0,0,.2-3,29.62,29.62,0,0,0-2.12-2.47c-1.17-1.05-.78-2.23-.49-3.41s1.37-.47,2.05-.76a6.79,6.79,0,0,1,1.57-.25c-1.75-1.6-3.25-3.19-5.57-3.49-1.23-.15-1.38-1.25-1.44-2.09-.27-4-2-6.77-5.9-8.09a2.13,2.13,0,0,1-1.37-2.87,32.66,32.66,0,0,1,2-6.18,117.65,117.65,0,0,0,5.2-13.8,9.76,9.76,0,0,0,.43-5.13,34.76,34.76,0,0,1-.16-14.15c1.35-6.4,2-13,5.75-18.63a3.81,3.81,0,0,0,.25-1.26c.47-2.24-.09-4.56.49-6.79.8-3.08,2.58-5.7,4-8.5.41-.12.54-.49.75-.81.78-1.24,1.35-2.72,2.41-3.63a42.79,42.79,0,0,0,5.59-6.53,1,1,0,0,0-.16-1.55c-1.7-1.53-3.2-3.12-3.61-5.59-.28-1.7-.9-3.57-.54-5.09.32-1.33,1-2.74,1.46-4.15a9.41,9.41,0,0,1,3.76-5.34,50.28,50.28,0,0,1,5.14-3.41c3-1.47,5.47-3.92,9.13-4.11,3-.16,6-.86,9-1.31,2.28-.62,4.7-.7,6.78-2.12.62-.43,1.8-.12,2.72,0,5.85.48,11.73.75,17.5,1.91,2.88.58,6,1.3,8.12,3.14,3.31,2.9,7.49,4.76,10.09,8.51a15.53,15.53,0,0,0,4.36,4.15c5.38,3.48,9.18,8.57,13.46,13.16a19.58,19.58,0,0,1,2.5,4.33,47.47,47.47,0,0,0,3.55,5.83c.68.91.73,2.14,1.27,3.18,1.17,2.25,2.05,4.64,3.14,6.94,1.26,2.67.46,5.49.44,8.19,0,4.13,2.08,6.74,5,9.06a2.53,2.53,0,0,0,1.76.45c4.05,0,7.65-1.53,11.16-3.25a15.34,15.34,0,0,1,7.53-1.43,6.11,6.11,0,0,1,2.11.76c3.84,1.53,7.76,1.28,11.69.59,1.73-.31,1.86,1.38,2.6,2.17.49.51.59,1.55-.7,2.37a25.86,25.86,0,0,0-4.8,4.62,5,5,0,0,1-3.74,1.64c-2.57.11-4.36,1.16-5.14,3.8-.73,2.48-1.73,4.87-2.7,7.27a19.48,19.48,0,0,1-11.14,11.27c-2.92,1.19-6,1.92-8.89,3-4.89,1.82-9.59,4.1-12.79,8.52a8.36,8.36,0,0,1-1.82,1.84,27,27,0,0,0-7,8.88,13.79,13.79,0,0,1-4.92,5.3c-.19.12-.38.11-.51.45-2.21,5.86-2.56,11.73-.22,17.62.37.93,0,1.78-.08,2.63-.21,4.81,1.11,9.34,2.25,13.91a8.81,8.81,0,0,1,.24,1.11c.63,4.76,3.94,7.54,7.7,9.64,9.81,5.46,18.09,12.46,24.36,21.89a87.13,87.13,0,0,0,13.78,15.39c6.08,5.62,10.91,12.14,13.17,20.22.93,3.37,2.93,6.14,4.27,9.25.27.61,0,1-.17,1.55-1.3,4.21-5.15,6.25-7.59,9.44-4.19,5.48-8.87,10.63-12.66,16.34-2.93,4.41-6.68,8.17-9.25,12.8a13,13,0,0,0-1.38,3.64,2.91,2.91,0,0,1-1.77,2.12q-6.3,3.23-12.52,6.6a18.87,18.87,0,0,0-2.66,2.1A38.7,38.7,0,0,1,528,551a16.32,16.32,0,0,0-5.32,4c-4.69,5.61-10.76,8.48-17.86,9.82A165.44,165.44,0,0,0,488,569c-5.52,1.66-11.28,2.54-17.16,1.44a28.18,28.18,0,0,0-9.73.2c-2.6.44-5.24.57-7.83,1.2-1.89.47-3.25,1.91-5.15,2.31a71.4,71.4,0,0,1-9.31,1.3,17.54,17.54,0,0,0-3.23.35c-4.87,1.28-9.6-.1-14.35-.78-3.6-.52-7.17-1.42-10.79-1.65a26.82,26.82,0,0,0-8.24.33,27.45,27.45,0,0,1-10.83.42,13.34,13.34,0,0,0-10.1,2.11,6.59,6.59,0,0,1-4.41,1c-3.24-.13-6.54-.4-9.73.55a12.86,12.86,0,0,1-5,.63c-2.84-.3-5.46.79-8.2,1.14a16.07,16.07,0,0,1-6.62-.37,5.21,5.21,0,0,0-1.75-.36c-2.8.23-4.85-1.11-6.7-3a14.9,14.9,0,0,0-3.24-2.32,21.54,21.54,0,0,1-8.47-9.23,8.28,8.28,0,0,1-.76-5.21,41.11,41.11,0,0,1,1.49-6.48,76.93,76.93,0,0,0,3-12.65c.5-3.17.2-6.33.66-9.42.61-4.16,1.23-8.37,3.93-12a12.24,12.24,0,0,0,2.26-6c.35-3.8,2.11-7.13,3-10.73a49.19,49.19,0,0,0,2-12.14,83.1,83.1,0,0,1,1-13c.83-5,0-10.09.34-15.15a69.46,69.46,0,0,1,3.2-17.87,28.05,28.05,0,0,0-.32-20.05c-1.37-3.45-3.83-6.32-6.1-9.21-4.48-5.69-7.56-12.16-10.74-18.56a17.62,17.62,0,0,1-1-3.7,41.91,41.91,0,0,0-5.87-12.95,126.18,126.18,0,0,1-9.45-18.53c-.14-.33-.46-.65-.3-1.06a2.63,2.63,0,0,0-.26-2c-1.5-3.68-2.42-7.54-3.75-11.28-.83-3.33-2.93-6-4.71-8.84a25.8,25.8,0,0,1-2.43-5.46,38.21,38.21,0,0,0-8.08-14.16c-1.38-1.46-2.16-3.5-3.12-5.32-1.77-3.34-4.19-6.37-5-10.18a55.61,55.61,0,0,1-1.11-9.17c-.22-4.39-.82-8.73-1.43-13.06-.37-2.63-.31-5.29-.86-7.9-.37-1.77-1.2-3.37-1.68-5.09-.85-3.05-.41-6.27-1.27-9.32a34.28,34.28,0,0,1-.91-4.11,2.2,2.2,0,0,0-1.05-1.75c-2.65-1.33-2.67-4-3.32-6.32-.49-1.78.51-3.32.44-5.05a35.63,35.63,0,0,0-.75-6.77c-.31-1.33-1.51-2.07-2.28-3.09a15.82,15.82,0,0,0-2.4-2.44c-1.89-1.61-3-3.74-4.21-5.84a7.12,7.12,0,0,0-3.74-3.41c-2.83-1-3.57-2.33-3-5.27a15.05,15.05,0,0,1,3.07-6.73c1.46-1.84,1.42-1.83-.32-3.37a42.39,42.39,0,0,0-4.11-3.45c-2.71-1.85-5-1.7-7,.89-1.78,2.37-4.06,4.41-5.12,7.28a5,5,0,0,1-2.4-4.73,4.56,4.56,0,0,0-.87-3.64,21.89,21.89,0,0,0-1.89-2.65c-1.43-1.6-1.37-3.62-1.56-5.5a17.31,17.31,0,0,1,.95-8.33c1.09-2.72,2.19-5.43,3.46-8.08,1.11-2.34,2-4.78,3-7.2a2.35,2.35,0,0,1,1.84-1.62c2.06-.39,3.52-1.69,5-3.08a2.86,2.86,0,0,0,.81-3.69,11.66,11.66,0,0,1-.76-7.14c.17-.87.3-1.45,1.4-1.61a4.64,4.64,0,0,0,3.09-1.65,1.25,1.25,0,0,1,.23-.23c2.61-2.52,3.44-2.62,6.45-.75.95.59,1.41.88,1.73.76"/>
        </g>
      </g>
    </g>
  </g>
</svg>
