<svg xmlns="http://www.w3.org/2000/svg" xmlns:xlink="http://www.w3.org/1999/xlink" width="644.66mm" height="204.51mm" viewBox="0 0 1827.37 579.71">
  <defs>
    <style>
      .cls-1 {
        fill: url(#Dégradé_sans_nom_125);
      }

      .cls-2 {
        fill: url(#Dégradé_sans_nom_25);
      }

      .cls-3 {
        fill: #114f9e;
      }

      .cls-4 {
        fill: #fff;
      }

      .cls-5 {
        fill: url(#Dégradé_sans_nom_10);
      }

      .cls-6 {
        fill: url(#Dégradé_sans_nom_125-2);
      }

      .cls-7 {
        fill: url(#Dégradé_sans_nom_10-2);
      }

      .cls-8 {
        fill: url(#Dégradé_sans_nom_10-3);
      }
    </style>
    <linearGradient id="Dégradé_sans_nom_125" data-name="Dégradé sans nom 125" x1="489.23" y1="515" x2="232.06" y2="69.56" gradientUnits="userSpaceOnUse">
      <stop offset="0" stop-color="#d9a101"/>
      <stop offset="0.09" stop-color="#e2af0d"/>
      <stop offset="0.25" stop-color="#eec41f"/>
      <stop offset="0.44" stop-color="#f7d32b"/>
      <stop offset="0.66" stop-color="#fcdb33"/>
      <stop offset="1" stop-color="#fede35"/>
    </linearGradient>
    <linearGradient id="Dégradé_sans_nom_25" data-name="Dégradé sans nom 25" y1="228.92" x2="459.71" y2="228.92" gradientUnits="userSpaceOnUse">
      <stop offset="0" stop-color="#18509f"/>
      <stop offset="0.16" stop-color="#1a488e"/>
      <stop offset="0.5" stop-color="#1e3a71"/>
      <stop offset="0.79" stop-color="#20325f"/>
      <stop offset="1" stop-color="#212f59"/>
    </linearGradient>
    <linearGradient id="Dégradé_sans_nom_10" data-name="Dégradé sans nom 10" x1="900.91" y1="128.6" x2="1623.75" y2="707.04" gradientTransform="translate(0.52 -4.06) rotate(0.16)" gradientUnits="userSpaceOnUse">
      <stop offset="0" stop-color="#18509f"/>
      <stop offset="0.48" stop-color="#184f9d"/>
      <stop offset="0.66" stop-color="#194c96"/>
      <stop offset="0.78" stop-color="#1b468b"/>
      <stop offset="0.88" stop-color="#1d3e7a"/>
      <stop offset="0.97" stop-color="#203464"/>
      <stop offset="1" stop-color="#212f59"/>
    </linearGradient>
    <linearGradient id="Dégradé_sans_nom_125-2" x1="1400.74" y1="471.63" x2="1400.74" y2="358.05" xlink:href="#Dégradé_sans_nom_125"/>
    <linearGradient id="Dégradé_sans_nom_10-2" x1="1378.83" y1="414.84" x2="1422.32" y2="414.84" gradientTransform="matrix(1, 0, 0, 1, 0, 0)" xlink:href="#Dégradé_sans_nom_10"/>
    <linearGradient id="Dégradé_sans_nom_10-3" x1="707.43" y1="245.35" x2="1644.23" y2="245.35" gradientTransform="matrix(1, 0, 0, 1, 0, 0)" xlink:href="#Dégradé_sans_nom_10"/>
  </defs>
  <g id="Calque_2" data-name="Calque 2">
    <g id="Calque_1-2" data-name="Calque 1">
      <g>
        <circle class="cls-1" cx="360.65" cy="292.28" r="257.14"/>
        <path class="cls-2" d="M430.14,142.51C371,66.8,360-5.2,255.67,118.91c-15.43,18.36-73.13,44.75-102.83,40.28C65.54,146,0,251.35,0,251.34S24,391.85,80.31,405.16C109.05,412,119.76,379.38,185,358.72c44.8-14.2,68.63-8,101.86-12.08,43.93-5.42,103.67-25.36,172.87-107.9C459.12,212.34,454.09,173.17,430.14,142.51ZM189.05,181.82l5.57,6.81,8.79-3.25-5.39,7.5,5.63,6.87-8.8-2.16L189.56,205l-.18-8.93-8.88-2.18,8.74-3.23Zm-17.16,34.51,5.55,6.76,8.7-3.21-5.3,7.39,5.59,6.83-8.82-2.2-5.28,7.4-.19-8.85-8.78-2.16,8.67-3.2Zm3.32,60.34-.17-8.82-8.84-2.17,8.69-3.21-.18-8.8,5.58,6.81,8.69-3.21-5.25,7.31,5.54,6.91-8.77-2.18Zm22.08,30.25-.18-8.85-8.8-2.16,8.68-3.2-.15-8.77,5.55,6.77,8.7-3.21-5.3,7.39,5.59,6.83-8.81-2.17Zm15.83-135.39,8.7-3.21-.18-8.79,5.56,6.81,8.7-3.21-5.29,7.38,5.57,6.79-8.78-2.16-5.28,7.35L222,173.7ZM232.74,322l-.18-8.82L223.72,311l8.72-3.22-.18-8.84,5.61,6.84,8.76-3.24L241.27,310l5.56,6.78L238,314.6Zm19.55-154.62,8.78-3.24-.18-8.79,5.56,6.8,8.75-3.22-5.33,7.43,5.66,6.91-8.81-2.17-5.28,7.37-.18-8.88Zm19.76,150.42-.18-8.82L263,306.77l8.72-3.22-.18-8.7,5.52,6.73,8.72-3.22-5.3,7.4,5.59,6.82-8.78-2.16Zm60.69-113.54-5.31,7.39,5.59,6.82-8.78-2.15L319,223.62l-.27-8.85L310,212.63l8.69-3.21-.18-8.8,5.58,6.81Zm-36.39-33.83,5.58,6.76,8.68-3.2-5.28,7.34,5.61,6.86-8.82-2.2-5.28,7.4-.19-8.82-8.82-2.17,8.8-3.25Zm8.27,125.05-.18-8.77-8.93-2.2,8.77-3.23-.18-8.84,5.61,6.84,8.72-3.22-5.31,7.39,5.59,6.82-8.8-2.16ZM321.8,261l-.18-8.82L312.78,250l8.8-3.24-.27-8.72,5.58,6.76,8.67-3.2-5.28,7.35,5.61,6.85-8.8-2.17Z"/>
        <path class="cls-3" d="M460.07,241.66a7.89,7.89,0,0,1-.36,2.38,15.66,15.66,0,0,1-4.42-6.32c-1.29-2.87-3.37-4.48-5.87-6.22a61.91,61.91,0,0,0-14.62-7.56,4.29,4.29,0,0,1-2.09-1.57c-4.44-6.94-11.32-9.33-18.25-11.41-3.95-1.19-7.8-3-12.14-2.62-1.33.12-2.91-1-4.11-1.92-4.22-3.33-8.29-6.91-12.51-10.26a14.73,14.73,0,0,0-5.08-3c-7.89-2-15.86-3.48-24.05-2.33a4.53,4.53,0,0,1-1.29.19c-10.27-1.77-20.95-1.84-29.78-9.24a30.69,30.69,0,0,0-8.18-4.38,36.18,36.18,0,0,1-17.8-15c-3.58-5.92-8.34-10.35-14.81-12.17A33.32,33.32,0,0,0,279,149c-3.7-.36-7.43-.38-11.12-.79-1.42-.16-2.76-1-4.64-1.77,3.87-8.11,7.6-15.71,11.16-23.41,3.46-7.48,6.75-15.05,10.12-22.58C312.81,37.1,318.27-.59,327.9,0c30.88,21.19,72.79,35.19,85.21,26.16,18.31-13.32,69.31,33.41,64.65,46.9"/>
        <g>
          <g>
            <rect class="cls-4" x="206.09" y="151.3" width="12.62" height="343.4" transform="translate(121.83 -52.82) rotate(19.78)"/>
            <path class="cls-4" d="M160.24,486.71c-.81,2.51-4,3.7-7.39,2.63s-5.36-4.14-4.55-6.65,4.11-3.52,7.46-2.45S161,484.19,160.24,486.71Z"/>
          </g>
          <path class="cls-4" d="M277,151a5.14,5.14,0,0,0,2.94,2.09,11.25,11.25,0,0,1,5.42,3.7,11.36,11.36,0,0,0,1.12.94c3.13,2.51,5.11,5.94,6.9,9.38,1.57,3,2.44,6.36,3.62,9.56,1.75,4.76,3.24,9.55,2.78,14.74-.16,1.89,0,3.81-.05,5.71a23.79,23.79,0,0,0,1.43,8.77,71.23,71.23,0,0,1,2.77,9,103,103,0,0,0,4.93,16.64,2.88,2.88,0,0,0,.83,1.18,24.4,24.4,0,0,1,4.1,5.23,42.3,42.3,0,0,0,2.59,3.75,56,56,0,0,1,6.41,9.6c3.39,6.43,6.4,13.07,9.6,19.61,1.58,3.22,3,6.5,4.32,9.84s2.24,6.78,4.51,9.52c2.6,3.14,3.33,6.8,4,10.61.37,2.21,0,4.46.45,6.64a34.43,34.43,0,0,0,9.72,17.87c2.11,2.05,4.47,3.94,5.34,7,1.59,3,3.67,5.62,5.53,8.4,2.2,3.3,4.51,6.58,6,10.27a71.21,71.21,0,0,0,16.88,24.88c.27.26.63.41.92.65,2.36,2,5.44,2.8,8,4.6a77,77,0,0,1,17.52,17.32c.83,1.13,1.65,2.23,1.53,3.76,1.23-.36,1.62-2,3.15-1.55,3.06.88,5.51-.32,7.63-2.44a1.93,1.93,0,0,0,.2-3,29.62,29.62,0,0,0-2.12-2.47c-1.17-1.05-.78-2.23-.49-3.41s1.37-.47,2.05-.76a6.79,6.79,0,0,1,1.57-.25c-1.75-1.6-3.25-3.19-5.57-3.49-1.23-.15-1.38-1.25-1.44-2.09-.27-4-2-6.77-5.9-8.09a2.13,2.13,0,0,1-1.37-2.87,32.66,32.66,0,0,1,2-6.18,117.65,117.65,0,0,0,5.2-13.8,9.76,9.76,0,0,0,.43-5.13,34.76,34.76,0,0,1-.16-14.15c1.35-6.4,2-13,5.75-18.63a3.81,3.81,0,0,0,.25-1.26c.47-2.24-.09-4.56.49-6.79.8-3.08,2.58-5.7,4-8.5.41-.12.54-.49.75-.81.78-1.24,1.35-2.72,2.41-3.63a42.79,42.79,0,0,0,5.59-6.53,1,1,0,0,0-.16-1.55c-1.7-1.53-3.2-3.12-3.61-5.59-.28-1.7-.9-3.57-.54-5.09.32-1.33,1-2.74,1.46-4.15a9.41,9.41,0,0,1,3.76-5.34,50.28,50.28,0,0,1,5.14-3.41c3-1.47,5.47-3.92,9.13-4.11,3-.16,6-.86,9-1.31,2.28-.62,4.7-.7,6.78-2.12.62-.43,1.8-.12,2.72,0,5.85.48,11.73.75,17.5,1.91,2.88.58,6,1.3,8.12,3.14,3.31,2.9,7.49,4.76,10.09,8.51a15.53,15.53,0,0,0,4.36,4.15c5.38,3.48,9.18,8.57,13.46,13.16a19.58,19.58,0,0,1,2.5,4.33,47.47,47.47,0,0,0,3.55,5.83c.68.91.73,2.14,1.27,3.18,1.17,2.25,2.05,4.64,3.14,6.94,1.26,2.67.46,5.49.44,8.19,0,4.13,2.08,6.74,5,9.06a2.53,2.53,0,0,0,1.76.45c4.05,0,7.65-1.53,11.16-3.25a15.34,15.34,0,0,1,7.53-1.43,6.11,6.11,0,0,1,2.11.76c3.84,1.53,7.76,1.28,11.69.59,1.73-.31,1.86,1.38,2.6,2.17.49.51.59,1.55-.7,2.37a25.86,25.86,0,0,0-4.8,4.62,5,5,0,0,1-3.74,1.64c-2.57.11-4.36,1.16-5.14,3.8-.73,2.48-1.73,4.87-2.7,7.27a19.48,19.48,0,0,1-11.14,11.27c-2.92,1.19-6,1.92-8.89,3-4.89,1.82-9.59,4.1-12.79,8.52a8.36,8.36,0,0,1-1.82,1.84,27,27,0,0,0-7,8.88,13.79,13.79,0,0,1-4.92,5.3c-.19.12-.38.11-.51.45-2.21,5.86-2.56,11.73-.22,17.62.37.93,0,1.78-.08,2.63-.21,4.81,1.11,9.34,2.25,13.91a8.81,8.81,0,0,1,.24,1.11c.63,4.76,3.94,7.54,7.7,9.64,9.81,5.46,18.09,12.46,24.36,21.89a87.13,87.13,0,0,0,13.78,15.39c6.08,5.62,10.91,12.14,13.17,20.22.93,3.37,2.93,6.14,4.27,9.25.27.61,0,1-.17,1.55-1.3,4.21-5.15,6.25-7.59,9.44-4.19,5.48-8.87,10.63-12.66,16.34-2.93,4.41-6.68,8.17-9.25,12.8a13,13,0,0,0-1.38,3.64,2.91,2.91,0,0,1-1.77,2.12q-6.3,3.23-12.52,6.6a18.87,18.87,0,0,0-2.66,2.1A38.7,38.7,0,0,1,528,551a16.32,16.32,0,0,0-5.32,4c-4.69,5.61-10.76,8.48-17.86,9.82A165.44,165.44,0,0,0,488,569c-5.52,1.66-11.28,2.54-17.16,1.44a28.18,28.18,0,0,0-9.73.2c-2.6.44-5.24.57-7.83,1.2-1.89.47-3.25,1.91-5.15,2.31a71.4,71.4,0,0,1-9.31,1.3,17.54,17.54,0,0,0-3.23.35c-4.87,1.28-9.6-.1-14.35-.78-3.6-.52-7.17-1.42-10.79-1.65a26.82,26.82,0,0,0-8.24.33,27.45,27.45,0,0,1-10.83.42,13.34,13.34,0,0,0-10.1,2.11,6.59,6.59,0,0,1-4.41,1c-3.24-.13-6.54-.4-9.73.55a12.86,12.86,0,0,1-5,.63c-2.84-.3-5.46.79-8.2,1.14a16.07,16.07,0,0,1-6.62-.37,5.21,5.21,0,0,0-1.75-.36c-2.8.23-4.85-1.11-6.7-3a14.9,14.9,0,0,0-3.24-2.32,21.54,21.54,0,0,1-8.47-9.23,8.28,8.28,0,0,1-.76-5.21,41.11,41.11,0,0,1,1.49-6.48,76.93,76.93,0,0,0,3-12.65c.5-3.17.2-6.33.66-9.42.61-4.16,1.23-8.37,3.93-12a12.24,12.24,0,0,0,2.26-6c.35-3.8,2.11-7.13,3-10.73a49.19,49.19,0,0,0,2-12.14,83.1,83.1,0,0,1,1-13c.83-5,0-10.09.34-15.15a69.46,69.46,0,0,1,3.2-17.87,28.05,28.05,0,0,0-.32-20.05c-1.37-3.45-3.83-6.32-6.1-9.21-4.48-5.69-7.56-12.16-10.74-18.56a17.62,17.62,0,0,1-1-3.7,41.91,41.91,0,0,0-5.87-12.95,126.18,126.18,0,0,1-9.45-18.53c-.14-.33-.46-.65-.3-1.06a2.63,2.63,0,0,0-.26-2c-1.5-3.68-2.42-7.54-3.75-11.28-.83-3.33-2.93-6-4.71-8.84a25.8,25.8,0,0,1-2.43-5.46,38.21,38.21,0,0,0-8.08-14.16c-1.38-1.46-2.16-3.5-3.12-5.32-1.77-3.34-4.19-6.37-5-10.18a55.61,55.61,0,0,1-1.11-9.17c-.22-4.39-.82-8.73-1.43-13.06-.37-2.63-.31-5.29-.86-7.9-.37-1.77-1.2-3.37-1.68-5.09-.85-3.05-.41-6.27-1.27-9.32a34.28,34.28,0,0,1-.91-4.11,2.2,2.2,0,0,0-1.05-1.75c-2.65-1.33-2.67-4-3.32-6.32-.49-1.78.51-3.32.44-5.05a35.63,35.63,0,0,0-.75-6.77c-.31-1.33-1.51-2.07-2.28-3.09a15.82,15.82,0,0,0-2.4-2.44c-1.89-1.61-3-3.74-4.21-5.84a7.12,7.12,0,0,0-3.74-3.41c-2.83-1-3.57-2.33-3-5.27a15.05,15.05,0,0,1,3.07-6.73c1.46-1.84,1.42-1.83-.32-3.37a42.39,42.39,0,0,0-4.11-3.45c-2.71-1.85-5-1.7-7,.89-1.78,2.37-4.06,4.41-5.12,7.28a5,5,0,0,1-2.4-4.73,4.56,4.56,0,0,0-.87-3.64,21.89,21.89,0,0,0-1.89-2.65c-1.43-1.6-1.37-3.62-1.56-5.5a17.31,17.31,0,0,1,.95-8.33c1.09-2.72,2.19-5.43,3.46-8.08,1.11-2.34,2-4.78,3-7.2a2.35,2.35,0,0,1,1.84-1.62c2.06-.39,3.52-1.69,5-3.08a2.86,2.86,0,0,0,.81-3.69,11.66,11.66,0,0,1-.76-7.14c.17-.87.3-1.45,1.4-1.61a4.64,4.64,0,0,0,3.09-1.65,1.25,1.25,0,0,1,.23-.23c2.61-2.52,3.44-2.62,6.45-.75.95.59,1.41.88,1.73.76"/>
        </g>
      </g>
      <path class="cls-5" d="M783.57,443.55a29.21,29.21,0,0,1-2.92,12.83,33.89,33.89,0,0,1-8.18,10.73A40.41,40.41,0,0,1,760,474.55a44,44,0,0,1-15.91,2.78,98.81,98.81,0,0,1-14-.9,60.77,60.77,0,0,1-11.71-2.85,55.63,55.63,0,0,1-10.51-5,99.82,99.82,0,0,1-10.43-7.43l16.51-16.67A47.11,47.11,0,0,0,728,452.94a44.14,44.14,0,0,0,15,2.47,19.59,19.59,0,0,0,6.23-1,17.55,17.55,0,0,0,5.1-2.63,12.7,12.7,0,0,0,3.45-3.91,9.87,9.87,0,0,0,1.28-4.95,11.92,11.92,0,0,0-1.06-5.1,12.32,12.32,0,0,0-3.75-4.35,37.72,37.72,0,0,0-7.51-4.28q-4.8-2.18-12.31-4.87a115.34,115.34,0,0,1-12.68-5.48,44.09,44.09,0,0,1-10.66-7.43,34.13,34.13,0,0,1-7.36-10.2A32,32,0,0,1,701,387.43a32.35,32.35,0,0,1,3.07-14.11,33.25,33.25,0,0,1,8.41-11,39.32,39.32,0,0,1,12.45-7.13,45.35,45.35,0,0,1,15.39-2.56q13.8,0,23.27,3.6a50.81,50.81,0,0,1,16.81,10.5l-16.21,16.37a32.49,32.49,0,0,0-10.06-6.68,33.63,33.63,0,0,0-13.06-2.32,18.71,18.71,0,0,0-6.37,1.05,16.67,16.67,0,0,0-5,2.78,13.8,13.8,0,0,0-3.38,4.05,10,10,0,0,0-1.27,4.88,11.13,11.13,0,0,0,1.2,5.18,13.89,13.89,0,0,0,4,4.5,40.13,40.13,0,0,0,7.58,4.35c3.16,1.46,7.08,3,11.79,4.73a90.15,90.15,0,0,1,15.46,6.9,43.22,43.22,0,0,1,10.51,8.25,29.44,29.44,0,0,1,6,10.13A38.6,38.6,0,0,1,783.57,443.55Zm98.9-67.73H849.3l0,99.22H825.76l0-99.22H792.56V355.13l89.91,0ZM987.72,475H962.1l-8.54-27.32a43.81,43.81,0,0,0-3.38-8.25,25.47,25.47,0,0,0-4.86-6.46,20.1,20.1,0,0,0-6.82-4.2,26.44,26.44,0,0,0-9.36-1.5h-8.68V475h-23l0-119.94,47.35-.16a38.16,38.16,0,0,1,14.24,2.63,34.4,34.4,0,0,1,11.38,7.27,33.32,33.32,0,0,1,7.5,11,34.3,34.3,0,0,1,2.7,13.66,32.32,32.32,0,0,1-1.64,10.2,34.3,34.3,0,0,1-4.62,9.16,35.86,35.86,0,0,1-7.08,7.43,29.8,29.8,0,0,1-9,4.88,22.91,22.91,0,0,1,9.25,6.08,29.6,29.6,0,0,1,5.67,9.53q1,2.55,1.94,5.1t1.87,5.33q1,2.77,2.09,6c.74,2.16,1.56,4.53,2.46,7.13q1.65,4.95,3.08,8.48A41.1,41.1,0,0,0,987.72,475Zm-30.35-83.9a18.2,18.2,0,0,0-1.57-7.65,19.26,19.26,0,0,0-4.28-6,19.65,19.65,0,0,0-6.38-4,21.71,21.71,0,0,0-7.89-1.43H920.44v37.37h16.81a23.89,23.89,0,0,0,7.88-1.28,18.48,18.48,0,0,0,6.38-3.68,17.37,17.37,0,0,0,5.85-13.36ZM1123.26,475h-25.52l-11.12-24h-58.23l-11.26,24H991.62l56.7-120.1h18.17Zm-45.8-43.36-20-43.23-20.25,43.24Zm138,11.82a29.21,29.21,0,0,1-2.92,12.83,34,34,0,0,1-8.18,10.74,40.75,40.75,0,0,1-12.46,7.43,43.93,43.93,0,0,1-15.91,2.78,98.77,98.77,0,0,1-14-.9,60.58,60.58,0,0,1-11.71-2.84,56,56,0,0,1-10.51-5,98.36,98.36,0,0,1-10.43-7.43l16.5-16.66a47.52,47.52,0,0,0,14.11,8.47,44,44,0,0,0,15,2.47,19.57,19.57,0,0,0,6.22-1,17.61,17.61,0,0,0,5.11-2.63,12.78,12.78,0,0,0,3.45-3.9,9.9,9.9,0,0,0,1.27-5,11.92,11.92,0,0,0-1-5.1,12.32,12.32,0,0,0-3.75-4.35,38,38,0,0,0-7.51-4.28q-4.8-2.18-12.31-4.87a115.34,115.34,0,0,1-12.68-5.48,44.34,44.34,0,0,1-10.66-7.42,34,34,0,0,1-7.36-10.21,31.78,31.78,0,0,1-2.78-13.81,32.41,32.41,0,0,1,3.07-14.11,33.21,33.21,0,0,1,8.4-11,39.2,39.2,0,0,1,12.46-7.14,45.35,45.35,0,0,1,15.39-2.55q13.8,0,23.26,3.59a50.77,50.77,0,0,1,16.82,10.51L1196,382.94a32.4,32.4,0,0,0-10.06-6.67,33.66,33.66,0,0,0-13.06-2.33,18.77,18.77,0,0,0-6.38,1.05,17,17,0,0,0-5,2.78,13.68,13.68,0,0,0-3.38,4.06,10,10,0,0,0-1.28,4.87,11.11,11.11,0,0,0,1.21,5.18,13.91,13.91,0,0,0,4,4.51,40.68,40.68,0,0,0,7.58,4.35q4.72,2.17,11.78,4.72a90.28,90.28,0,0,1,15.47,6.9,43.22,43.22,0,0,1,10.51,8.25,29.37,29.37,0,0,1,6,10.14A38.53,38.53,0,0,1,1215.41,443.43Zm102.07-2.88a31.54,31.54,0,0,1-3.08,13.88,34.84,34.84,0,0,1-8.17,11,37.77,37.77,0,0,1-11.78,7.14,39.08,39.08,0,0,1-14,2.55l-48.48-.13,0-120.09h43.24a44,44,0,0,1,14.48,2.32,34.36,34.36,0,0,1,11.63,6.75,30.89,30.89,0,0,1,7.74,10.81,35.57,35.57,0,0,1,2.78,14.33,30.1,30.1,0,0,1-3,13.07,32.69,32.69,0,0,1-8,10.65,28.13,28.13,0,0,1,7,5,32.5,32.5,0,0,1,5.25,6.68,31.84,31.84,0,0,1,4.44,16.14Zm-28.69-51a16,16,0,0,0-1.65-7.5,15.67,15.67,0,0,0-4.43-5.26,19.73,19.73,0,0,0-6.38-3.15,27,27,0,0,0-7.5-1h-13.66v33q3.76.15,6.76.15h6.91a30.39,30.39,0,0,0,7.5-.91,19,19,0,0,0,6.38-2.85,14.23,14.23,0,0,0,4.42-5A15.53,15.53,0,0,0,1288.79,389.52Zm4.52,49.68a16.55,16.55,0,0,0-1.43-6.9A15.5,15.5,0,0,0,1288,427a18.37,18.37,0,0,0-5.71-3.38,19.87,19.87,0,0,0-7-1.19c-3.4-.1-6.75-.13-10-.07s-6.66.07-10.06.07v33.17h17.41a32.18,32.18,0,0,0,7.51-.9,19.93,19.93,0,0,0,6.67-2.93,15.84,15.84,0,0,0,4.73-5.11A14.45,14.45,0,0,0,1293.31,439.2Zm299.43-84.35,0,65.14a67.66,67.66,0,0,1-3.6,22.37,53.49,53.49,0,0,1-10.42,18.09,48.48,48.48,0,0,1-16.66,12.16,54,54,0,0,1-22.44,4.44,54.72,54.72,0,0,1-22.22-4.35,50,50,0,0,1-16.89-11.93,52.65,52.65,0,0,1-10.73-17.86,63.84,63.84,0,0,1-3.76-22.13l0-65.9h23.26l0,66.05a41.94,41.94,0,0,0,2,13,31.25,31.25,0,0,0,5.7,10.58,26.57,26.57,0,0,0,9.39,7.13,29.87,29.87,0,0,0,12.83,2.62,32.67,32.67,0,0,0,13.29-2.48,24.91,24.91,0,0,0,9.3-6.9,30.2,30.2,0,0,0,5.55-10.44,44.11,44.11,0,0,0,1.87-13.21V354.86Zm106.68,113.82c-1-2.34-2-5.17-3.08-8.47l-2.46-7.13-2.1-6q-1-2.78-1.86-5.32c-.6-1.71-1.24-3.41-1.94-5.11a29.6,29.6,0,0,0-5.67-9.53,22.89,22.89,0,0,0-9.25-6.07,29.83,29.83,0,0,0,9-4.89,35.61,35.61,0,0,0,7.08-7.43,34.15,34.15,0,0,0,4.62-9.16,32.32,32.32,0,0,0,1.64-10.2,34.3,34.3,0,0,0-2.7-13.66,33.53,33.53,0,0,0-7.5-11,34.56,34.56,0,0,0-11.38-7.27,38.16,38.16,0,0,0-14.24-2.63l-47.35.17,0,119.93h23V427.19h8.68a26.18,26.18,0,0,1,9.36,1.5,19.8,19.8,0,0,1,6.81,4.2,25.45,25.45,0,0,1,4.87,6.45,43.62,43.62,0,0,1,3.37,8.26l8.55,27.31h25.62A41.1,41.1,0,0,1,1699.42,468.67Zm-28.84-70.08a17.47,17.47,0,0,1-4.28,5.78,18.62,18.62,0,0,1-6.38,3.67,23.64,23.64,0,0,1-7.88,1.28h-16.81V372H1652a21.69,21.69,0,0,1,7.88,1.42,19.51,19.51,0,0,1,6.38,4,19,19,0,0,1,4.27,6,18.06,18.06,0,0,1,1.58,7.65A17.74,17.74,0,0,1,1670.58,398.59Zm156.79,54.21a64.78,64.78,0,0,1-11.1,10.89,65.89,65.89,0,0,1-12.53,7.58,62.74,62.74,0,0,1-13.36,4.44,67.11,67.11,0,0,1-13.58,1.43,65.41,65.41,0,0,1-25.07-4.8,63.86,63.86,0,0,1-20.42-13.21,62.82,62.82,0,0,1-13.81-19.8,61.45,61.45,0,0,1-.09-48.86,61.56,61.56,0,0,1,13.8-19.74,65.82,65.82,0,0,1,20.49-13.29,64.31,64.31,0,0,1,25.06-4.89,62.41,62.41,0,0,1,28.15,6.3,66.68,66.68,0,0,1,21.54,16.8l-15.73,16.07q-6.75-9.15-15.14-13.13a43.05,43.05,0,0,0-18.73-4,40.89,40.89,0,0,0-16,3.15,41.87,41.87,0,0,0-13.12,8.64,40.42,40.42,0,0,0-8.83,12.76,37.9,37.9,0,0,0-3.22,15.53,38.28,38.28,0,0,0,3.23,15.69,41.2,41.2,0,0,0,38,24.68,39.14,39.14,0,0,0,15.28-3,47.26,47.26,0,0,0,12.88-7.95V432.55h-24.61V412.74h47Z"/>
      <g>
        <path class="cls-6" d="M1400.81,379.05A36.88,36.88,0,0,1,1435,401.12a35.1,35.1,0,0,1,0,27.43,35.36,35.36,0,0,1-7.88,11.43,38.62,38.62,0,0,1-12,7.86,35.89,35.89,0,0,1-14.24,2.79,36.45,36.45,0,0,1-14.36-2.81,38.17,38.17,0,0,1-12-7.85,35.46,35.46,0,0,1-7.9-11.4,33.14,33.14,0,0,1-2.78-13.73,33.7,33.7,0,0,1,2.8-13.84,35.21,35.21,0,0,1,7.88-11.42,37.93,37.93,0,0,1,26.41-10.53m0-21a58.89,58.89,0,0,0-41,16.43,56.44,56.44,0,0,0-12.51,18.06,56.43,56.43,0,0,0,0,44.54,56.47,56.47,0,0,0,12.51,18,59.24,59.24,0,0,0,18.52,12.11,58.83,58.83,0,0,0,44.89,0,59.66,59.66,0,0,0,18.46-12.11,56.36,56.36,0,0,0,12.5-18.06,56.09,56.09,0,0,0,0-44.4,57.63,57.63,0,0,0-12.5-18.07,58.3,58.3,0,0,0-40.87-16.49Z"/>
        <circle class="cls-7" cx="1400.58" cy="414.84" r="21.75"/>
      </g>
      <g>
        <path class="cls-3" d="M1732,295.86a34.35,34.35,0,0,1-2.24,12.45,32,32,0,0,1-6.25,10.17,29.15,29.15,0,0,1-21.7,9.41H1675V263.83h26.74a28.61,28.61,0,0,1,12.13,2.56,29.9,29.9,0,0,1,9.57,6.89,31.31,31.31,0,0,1,6.25,10.17A34.41,34.41,0,0,1,1732,295.86Zm-12.57-.32a23.71,23.71,0,0,0-1.36-8.49,20.86,20.86,0,0,0-4.17-7,19.22,19.22,0,0,0-6.68-4.72,22.19,22.19,0,0,0-8.93-1.72h-10.81v43.72h10.81a22.44,22.44,0,0,0,8.77-1.64,19.1,19.1,0,0,0,6.6-4.57,20.5,20.5,0,0,0,4.21-6.88A26.31,26.31,0,0,0,1719.38,295.54Z"/>
        <path class="cls-3" d="M1779.83,327.89h-42.28v-64h42.28v10.25h-30.11v15.29h29.71v10h-29.71v17.62h30.11Z"/>
      </g>
      <path class="cls-8" d="M821.45,283.19a38.74,38.74,0,0,1-3.87,17,45,45,0,0,1-10.83,14.2,53.66,53.66,0,0,1-16.49,9.83,58.12,58.12,0,0,1-21,3.68,129.93,129.93,0,0,1-18.58-1.2,79.93,79.93,0,0,1-15.49-3.77,74.55,74.55,0,0,1-13.91-6.65,130.33,130.33,0,0,1-13.8-9.84l21.85-22.05A62.75,62.75,0,0,0,748,295.61a58.52,58.52,0,0,0,19.86,3.27,25.65,25.65,0,0,0,8.25-1.29,23.12,23.12,0,0,0,6.75-3.47,17,17,0,0,0,4.57-5.17,13.1,13.1,0,0,0,1.69-6.55,15.92,15.92,0,0,0-1.39-6.76,16.4,16.4,0,0,0-5-5.76,50.19,50.19,0,0,0-9.93-5.66q-6.36-2.88-16.29-6.46a149.35,149.35,0,0,1-16.78-7.25,58.71,58.71,0,0,1-14.11-9.83,45.08,45.08,0,0,1-9.73-13.51,42.21,42.21,0,0,1-3.68-18.27,42.71,42.71,0,0,1,4.08-18.67,44,44,0,0,1,11.12-14.61,51.94,51.94,0,0,1,16.49-9.43,60,60,0,0,1,20.36-3.38q18.27,0,30.79,4.77a67.18,67.18,0,0,1,22.25,13.9l-21.46,21.66a42.8,42.8,0,0,0-13.31-8.84,44.56,44.56,0,0,0-17.28-3.08,24.7,24.7,0,0,0-8.44,1.39,22.26,22.26,0,0,0-6.65,3.67,18.22,18.22,0,0,0-4.47,5.37A13.17,13.17,0,0,0,744,208.1a14.63,14.63,0,0,0,1.59,6.86,18.25,18.25,0,0,0,5.36,6,53.63,53.63,0,0,0,10,5.76q6.25,2.88,15.59,6.25A119.36,119.36,0,0,1,797,242.07,56.92,56.92,0,0,1,810.92,253a39,39,0,0,1,8,13.41A51.05,51.05,0,0,1,821.45,283.19Zm184.34-37.74a79,79,0,0,1-6.65,32.18A82,82,0,0,1,981,303.85a86.5,86.5,0,0,1-26.79,17.58,85.44,85.44,0,0,1-65.18,0,86.21,86.21,0,0,1-26.88-17.58A82.25,82.25,0,0,1,844,277.73a81.91,81.91,0,0,1,0-64.66,82.13,82.13,0,0,1,18.15-26.22A85.54,85.54,0,0,1,921.66,163a84,84,0,0,1,77.48,50.16A78.8,78.8,0,0,1,1005.79,245.45Zm-30.79,0a51,51,0,0,0-4.18-20.56A54.18,54.18,0,0,0,959.38,208a55.38,55.38,0,0,0-17-11.52,52.77,52.77,0,0,0-41.59,0,55.26,55.26,0,0,0-17,11.52,54,54,0,0,0-11.44,16.89,52.41,52.41,0,0,0,0,41,53.5,53.5,0,0,0,11.44,17,54.91,54.91,0,0,0,17,11.52,52.66,52.66,0,0,0,41.59,0,55,55,0,0,0,17-11.52,53.67,53.67,0,0,0,11.44-17A51.26,51.26,0,0,0,975,245.45Zm213.34,79.46h-30.19V218.83l-50.06,84.42L1060,218V324.91h-30.19V166h34.76l44.1,78.86L1154.77,166h33.57Zm188.32,0h-30.19V218.83l-50.06,84.42L1248.34,218V324.91h-30.2V166h34.76l44.1,78.86L1343.09,166h33.57Zm134.68,0H1406.46V166.19h104.88v25.43h-74.69v37.94h73.7v24.83h-73.7v43.7h74.69ZM1644.23,193.6h-43.9V324.91h-31.18V193.6h-43.9V166.19h119Z"/>
    </g>
  </g>
</svg>
