<svg xmlns="http://www.w3.org/2000/svg" width="1111.04mm" height="127.62mm" viewBox="0 0 3149.4 361.75">
  <defs>
    <style>
      .cls-1 {
        font-size: 240px;
        font-family: RobotoSlab-Bold, Roboto Slab;
        font-weight: 700;
        letter-spacing: 0em;
      }

      .cls-1, .cls-2 {
        fill: #07a7de;
      }
    </style>
  </defs>
  <g id="Calque_2" data-name="Calque 2">
    <g id="Calque_2-2" data-name="Calque 2">
      <text class="cls-1" transform="translate(475.4 289.8)">THE NEW FEDERALIST</text>
      <path class="cls-2" d="M425.41,84.77l-.05-.1a4.8,4.8,0,0,0-.3-.48l0,0c-.08-.12-.14-.24-.22-.35-2.64-3.55-5.35.18-12.17,16.8-2.39,5.82-4.08,9.67-5.69,12.73-.58,1.07-1.15,2.09-1.74,3a49.58,49.58,0,0,1-3,4.37,43.28,43.28,0,0,1-3.22,3.76l-.16.17a74.6,74.6,0,0,1-13.39,10.74c-3.39,2.13-7.07,4.2-10.84,6.09l-.73.36-.56.27a123,123,0,0,1-12.79,5.22c-14.46,5-27.32,6.91-54.52,8.18-15,.71-25.94,1.77-32.07,3.12l-3.92.86h-.4a5.49,5.49,0,0,1-1.23-.45h0l-1.82-1.31c-6.6-4.75-12.9-12.53-15.33-18.91-.15-.39-.28-.79-.4-1.2l-.06-.18a.75.75,0,0,0,0-.16,36.59,36.59,0,0,1-.93-7.61A37,37,0,0,1,253,114.44a37.55,37.55,0,0,1,3-5.22c.14-.19.27-.4.42-.59l.18-.25c.61-.81,1.26-1.59,1.94-2.36.26-.29.52-.59.8-.88.55-.59,1.13-1.16,1.71-1.72l1-.88.32-.27a39.4,39.4,0,0,1,3.23-2.55l.39-.28.73-.5c10-6.62,24.18-10.51,42.78-11.73,17.9-1.17,29.65-2.71,40.22-5.28,30.36-7.37,52.78-22,66.2-43.06.25-.39.5-.78.74-1.17l.05-.08a77,77,0,0,0,5.25-10c3.15-7.06,4.61-11.92,5-17a23,23,0,0,0,.06-7,3.69,3.69,0,0,0-.82-2.39c-2.5-2.93-4-1.3-15.6,17.16-9,14.35-18.39,22.86-34.77,31.61-4.43,2.37-7.52,3.92-11.72,5-.56.14-1.14.27-1.73.4-7.69,1.56-19.52,1.78-47.49,2.14-54.19.68-58.05,1.2-73.27,9.81-19.05,10.77-38.19,25.59-49.54,38l-1.17,1.3-.3.35-.33.38a65.19,65.19,0,0,0-4.67,6c-3.82,5.68-6.43,8-12.44,11-4.38,2.17-12.4,4.69-15.25,4.79-.91,0-8.54-1.76-16.95-4-10-2.65-16.68-4.14-19.32-4.32-3.73-.26-4.26-.16-7.16,1.28a64.52,64.52,0,0,0-6.11,3.59C106.7,126.7,84.91,144,59.92,164L14.49,200.38l-1.58,3.54A144,144,0,0,0,1.44,243,109.58,109.58,0,0,0,.19,266.76a46.33,46.33,0,0,0,.63,6.71v.24l.09.28a43.75,43.75,0,0,0,1.6,5.95c12.94,38.71,47.54,61.84,101.43,67.83,4.07.45,8.73.89,10.36,1,14.4.78,36.3.16,48.84-1.38l4.94-.61.33-10.18c.73-22.73,5.68-38.33,15.06-47.5,2.71-2.65,7.61-5.72,9.14-5.72.37,0,1.63,1.55,2.8,3.43C201.8,297.07,218,309.21,241,320.91c7.48,3.81,14.74,7.21,18.39,8.67l2,.91.16-.06.07,0,.13,0h0l.24-.1.2-.08a35.19,35.19,0,0,0,4.13-1.47c15.59-6.55,25-15.53,25.77-24.59a17.32,17.32,0,0,0-.9-7.31,39.1,39.1,0,0,0-2.14-5.58l0,0c-2.7-6.29-3.16-9.21-4.46-28-.76-11-1.95-34.84-2.47-49.31l-.26-7.29a10.24,10.24,0,0,1,.48-2.18l1.57-2.53a60.52,60.52,0,0,1,11-12.24c.61-.47,1.21-.94,1.83-1.39l.4-.27c.65-.45,1.3-.88,2-1.3l1-.59c.52-.31,1.05-.61,1.58-.9,5.1-2.77,10.64-4.51,18.7-6,24.23-4.54,37.17-8.41,52.59-15.73a104.1,104.1,0,0,0,25.78-17.12l1.15-1,.3-.28a90.86,90.86,0,0,0,9.72-10.45c.15-.19.29-.4.45-.59l.52-.69c.35-.47.7-.93,1-1.4a75,75,0,0,0,14.57-36.86c.48-4.52.22-7.69-.81-9.94C425.54,85,425.48,84.9,425.41,84.77Z"/>
    </g>
  </g>
</svg>
