<?xml version="1.0" encoding="UTF-8"?>
<!-- Generator: Adobe Illustrator 23.0.5, SVG Export Plug-In . SVG Version: 6.00 Build 0)  -->
<svg version="1.1" id="Capa_1" xmlns="http://www.w3.org/2000/svg" xmlns:xlink="http://www.w3.org/1999/xlink" x="0px" y="0px" viewBox="0 0 131.9 140.9" style="enable-background:new 0 0 131.9 140.9;" xml:space="preserve">
<style type="text/css">
	.st0{fill:#E53C1B;}
</style>
<g>
	<path class="st0" d="M26.9,24.2c0,0-1.2-0.3-1.6,0.9L6.8,92c0,0-0.3,1.2,0.9,1.6l8.2,2.3c0,0,1.2,0.3,1.6-0.9l18.6-66.9   c0,0,0.3-1.2-0.9-1.6L26.9,24.2z"/>
	<path class="st0" d="M81.9,33.6c0,0,0.6-1.1-0.5-1.7L28.7,4.4c0,0-1.1-0.6-1.7,0.5L24.3,10c0,0-0.6,1.1,0.5,1.7l52.7,27.4   c0,0,1.1,0.6,1.7-0.5L81.9,33.6z"/>
	<path class="st0" d="M84.9,52.5c0,0-0.6-1.1-1.7-0.5L34.1,79.8c0,0-1.1,0.6-0.5,1.7l2.5,4.4c0,0,0.6,1.1,1.7,0.5l49.1-27.8   c0,0,1.1-0.6,0.5-1.7L84.9,52.5z"/>
	<path class="st0" d="M119.1,133.4c0.8,1.4,2.4,2.1,4.8,2.1c3.3,0,3.9-2,3.9-3.2c0-1.3-0.5-2.1-1.2-2.5s-1.6-0.5-2.5-0.6   c-1.3-0.1-2.4-0.2-2.4-1.2c0-0.8,0.7-1.2,2-1.2c1.1,0,1.9,0.5,2.1,0.8l1.7-1l-0.1-0.2c-0.1-0.2-0.5-0.6-1.1-0.9   c-0.5-0.3-1.5-0.6-2.6-0.6c-2.7,0-4.1,1.1-4.1,3c0,4.6,6.2,1.9,6.2,4.3c0,0.3,0,0.5-0.3,0.8c-0.2,0.3-0.8,0.5-1.6,0.5   c-1.6,0-2.7-0.6-3.1-1.2L119.1,133.4z M112.6,130.9h4v-1.8h-4V127h5v-1.8h-7.1v10.2h7.1v-1.8h-5.1L112.6,130.9L112.6,130.9z    M108.8,125.1h-2.2l-2.4,7.5l-2.4-7.5h-2.2l3.5,10.2h2.2L108.8,125.1z M97.9,125.1h-2.1v10.2h2.1V125.1z M85.6,125.1v1.8h3.1v8.3   h2.1v-8.3H94v-1.8C94,125.1,85.6,125.1,85.6,125.1z M80.8,127.8l1.3,3.4h-2.6L80.8,127.8z M85.9,135.3l-4-10.2h-2.2l-4,10.2H78   l0.9-2.2h4l0.8,2.2H85.9z M71.8,131.7l-3.9-6.6h-2.1v10.2H68v-6.6l3.9,6.6H74v-10.2h-2.1L71.8,131.7L71.8,131.7z M56.9,126.9h2.7   c1.1,0,1.7,0.4,1.7,1.5c0,1.1-0.6,1.5-1.7,1.5h-2.7V126.9z M63.4,128.4c0-1.3-0.4-2.2-1.2-2.7s-1.5-0.6-2.6-0.6h-4.7v10.2H57v-3.6   h1.8l2.6,3.6h2.5l-2.7-3.8C62.6,131.2,63.4,130.1,63.4,128.4 M47.5,130.9h4v-1.8h-4V127h5v-1.8h-7.1v10.2h7.1v-1.8h-5.1L47.5,130.9   L47.5,130.9z M35.4,125.1v1.8h3.2v8.3h2.1v-8.3h3.2v-1.8C43.9,125.1,35.4,125.1,35.4,125.1z M31.2,125.1h-2.1v10.2h6.8v-1.8h-4.7   V125.1z M22.2,127.8l1.3,3.4h-2.6L22.2,127.8z M27.3,135.3l-4-10.2h-2.2l-4,10.2h2.3l0.8-2.2h4l0.8,2.2H27.3z"/>
	<path class="st0" d="M98.4,114.3l-3.9-6.6h-2.1v10.2h2.1v-6.6l3.9,6.6h2.1v-10.2h-2.1V114.3z M85.6,110.4l1.3,3.4h-2.6L85.6,110.4z    M90.7,117.9l-4-10.2h-2.2l-4,10.2h2.3l0.8-2.2h4l0.8,2.2H90.7z M73.9,113.5h4v-1.8h-4v-2.1h5v-1.8h-7V118H79v-1.8h-5.1V113.5z    M63.5,109.6h2.7c1.1,0,1.7,0.4,1.7,1.5s-0.6,1.5-1.7,1.5h-2.7C63.5,112.6,63.5,109.6,63.5,109.6z M66.1,114.3   c1.1,0,1.9-0.2,2.6-0.6c0.8-0.5,1.2-1.4,1.2-2.7c0-1.3-0.4-2.2-1.2-2.7c-0.7-0.5-1.5-0.6-2.6-0.6h-4.7v10.2h2.1v-3.6   C63.5,114.3,66.1,114.3,66.1,114.3z M56.6,115.2c-0.5,0.6-1.2,1-2.1,1c-0.9,0-1.6-0.3-2.1-1c-0.5-0.6-0.8-1.4-0.8-2.4   s0.3-1.8,0.8-2.4s1.2-1,2.1-1c0.9,0,1.6,0.3,2.1,1c0.5,0.6,0.8,1.5,0.8,2.4C57.4,113.8,57.1,114.6,56.6,115.2 M58,109.1   c-0.9-1-2.1-1.5-3.6-1.5s-2.6,0.5-3.6,1.5c-0.9,1-1.4,2.2-1.4,3.7s0.5,2.7,1.4,3.7s2.1,1.5,3.6,1.5c1.4,0,2.6-0.5,3.6-1.5   c0.9-1,1.4-2.3,1.4-3.7C59.5,111.4,59,110.1,58,109.1 M41.2,109.6h2.7c1.1,0,1.7,0.4,1.7,1.5s-0.6,1.5-1.7,1.5h-2.7V109.6z    M47.6,111c0-1.3-0.4-2.2-1.2-2.7c-0.7-0.5-1.5-0.6-2.6-0.6h-4.7v10.2h2.1v-3.6H43l2.6,3.6h2.5l-2.7-3.8   C46.9,113.8,47.6,112.7,47.6,111 M34.6,107.7v5.3c0,0.9,0,1.3-0.2,2c-0.1,0.3-0.2,0.6-0.4,0.7c-0.3,0.3-0.9,0.6-1.7,0.6   c-1.2-0.1-1.7-0.4-1.9-1.2c-0.2-0.6-0.2-1.1-0.2-2v-5.3h-2.1v5.3c0,1.7,0.2,2.8,0.8,3.7c0.6,0.9,1.7,1.4,3.4,1.4   c2.2,0,3.3-0.7,3.8-1.9c0.4-0.9,0.5-1.8,0.5-3.1v-5.3h-2C34.6,107.9,34.6,107.7,34.6,107.7z M21,113.5h4v-1.8h-4v-2.1h5v-1.8h-7   V118h7.1v-1.8H21V113.5z"/>
</g>
</svg>