<?xml version="1.0" encoding="utf-8"?>
<!-- Generator: Adobe Illustrator 26.2.1, SVG Export Plug-In . SVG Version: 6.00 Build 0)  -->
<svg version="1.1"
	 id="svg1890" inkscape:version="0.92.1 r15371" sodipodi:docname="Logo Eurométropole Strasbourg.svg" xmlns:cc="http://creativecommons.org/ns#" xmlns:dc="http://purl.org/dc/elements/1.1/" xmlns:inkscape="http://www.inkscape.org/namespaces/inkscape" xmlns:rdf="http://www.w3.org/1999/02/22-rdf-syntax-ns#" xmlns:sodipodi="http://sodipodi.sourceforge.net/DTD/sodipodi-0.dtd" xmlns:svg="http://www.w3.org/2000/svg"
	 xmlns="http://www.w3.org/2000/svg" xmlns:xlink="http://www.w3.org/1999/xlink" x="0px" y="0px" viewBox="0 0 300 80.2"
	 style="enable-background:new 0 0 300 80.2;" xml:space="preserve">
<style type="text/css">
	.st0{fill:#97BF0B;}
	.st1{fill:#FFFFFF;}
	.st2{opacity:0.5;}
	.st3{display:none;}
	.st4{display:inline;fill:#FFFFFF;}
</style>
<sodipodi:namedview  bordercolor="#666666" borderopacity="1.0" fit-margin-bottom="0" fit-margin-left="0" fit-margin-right="0" fit-margin-top="0" id="base" inkscape:current-layer="layer1" inkscape:cx="198.15923" inkscape:cy="99.795445" inkscape:document-units="mm" inkscape:guide-bbox="true" inkscape:pageopacity="0.0" inkscape:pageshadow="2" inkscape:window-height="1023" inkscape:window-maximized="1" inkscape:window-width="1920" inkscape:window-x="1920" inkscape:window-y="0" inkscape:zoom="0.93707547" pagecolor="#ffffff" showgrid="false" showguides="true">
	</sodipodi:namedview>
<g id="layer1" transform="translate(-50.799046,-40.517834)" inkscape:groupmode="layer" inkscape:label="Calque 1">
	<rect id="rect6981" x="50.8" y="40.5" class="st0" width="300" height="80.2"/>
	<g id="g20" transform="matrix(0.61381018,0,0,-0.61381018,38.660424,403.29692)">
		<g id="g22">
			<g id="g28">
				<g id="g30">
				</g>
			</g>
			<g id="g560" transform="translate(39.5248,576.0153)">
				<path id="path562" inkscape:connector-curvature="0" class="st1" d="M36.2-27.5c-1.9,2.7-5.4,4-8.9,4c-4.2,0-8.4-1.9-8.4-6.6
					c0-10.2,24.2-4.4,24.2-22.6c0-11-8.7-16.3-18.7-16.3c-6.3,0-12.5,1.9-16.7,6.9l6.8,6.6c2.2-3.4,6.1-5.3,10.1-5.3
					c4.2,0,8.9,2.3,8.9,7c0,11.2-24.2,4.8-24.2,23c0,10.5,9.4,15.4,18.8,15.4c5.3,0,10.7-1.5,14.6-5.3L36.2-27.5z"/>
			</g>
			<g id="g564" transform="translate(42.0085,571.4879)">
				<path id="path566" inkscape:connector-curvature="0" class="st1" d="M40.8-35.8v7.4h7.1v11.6h8.6v-11.6h9.5v-7.4h-9.5V-51
					c0-3.5,1-5.6,4.8-5.6c1.5,0,3.6,0.3,4.7,1.1v-7.3c-1.8-0.9-4.8-1.1-6.8-1.1c-9.2,0-11.3,4.1-11.3,12.2v15.9H40.8z"/>
			</g>
			<g id="g568" transform="translate(52.693,574.083)">
				<path id="path570" inkscape:connector-curvature="0" class="st1" d="M60.4-31.1H69v-5.5h0.1c1.9,4,5.7,6.3,10.2,6.3
					c1.1,0,2.1-0.2,3.1-0.5v-8.4c-1.4,0.4-2.8,0.6-4.2,0.6c-8.1,0-9.3-6.8-9.3-8.7v-18.5h-8.7V-31.1z"/>
			</g>
			<g id="g572" transform="translate(72.5605,564.1144)">
				<path id="path574" inkscape:connector-curvature="0" class="st1" d="M96.8-49.4c0-2.5,0.4-4,1.8-4c1.9,0,2.8,2.4,2.8,4.4h1.4
					c0-4.7-3.3-7.7-8.5-7.7c-3.5,0-6.5,1.7-7.9,5c-2.1-3.8-7.5-5-10.6-5c-6.1,0-12.2,2.8-12.2,9.6c0,8.2,7.8,10.1,15,10.7l7.7,0.6
					v6.6c0,4.7-0.8,7.7-6.7,7.7c-2.7,0-7.3-0.6-7.2-2.4c0.1-1.3,4-1.1,4-4.9c0-2.8-1.8-4.7-4.8-4.7c-3.6,0-5.1,2.4-5.1,5.1
					c0,4.4,5.8,8.3,13.7,8.3c8.1,0,16.6-2.2,16.6-11.2V-49.4z M86.4-37.1l-6.2-0.6c-5.1-0.5-5.6-3.3-5.6-7.5c0-4.1,0.2-9,5.6-9
					c3.7,0,6.1,3.8,6.2,8V-37.1z"/>
			</g>
			<g id="g576" transform="translate(83.1746,570.6993)">
				<path id="path578" inkscape:connector-curvature="0" class="st1" d="M116.3-37.3c-1.7,2.3-3.8,3.5-6.8,3.5c-2.3,0-5-1.1-5-3.7
					c0-6.2,18.7-1.2,18.7-14.6c0-8.2-7.9-11.1-14.9-11.1c-5.3,0-10,1.4-13.5,5.3l5.8,5.4c2.2-2.4,4.5-4.3,8.2-4.3
					c2.5,0,5.8,1.2,5.8,4c0,7.1-18.7,1.5-18.7,14.7c0,7.7,6.9,11.2,13.9,11.2c4.6,0,9.5-1.4,12.3-5.3L116.3-37.3z"/>
			</g>
			<g id="g580" transform="translate(87.1922,581.1024)">
				<path id="path582" inkscape:connector-curvature="0" class="st1" d="M123.7-18.2h8.6v-24.3h0.2c1.8,2.2,5.3,5.3,11.8,5.3
					c9.9,0,16.7-7.9,16.7-18.2c0-10.2-6.4-18.2-17.1-18.2c-4.8,0-9.4,1.9-11.9,6.1h-0.1v-5.2h-8.2V-18.2z M142.2-45
					c-6.3,0-10.2-5-10.2-10.4c0-5.4,3.8-10.4,10.2-10.4c6.3,0,10.2,5,10.2,10.4C152.4-50,148.6-45,142.2-45"/>
			</g>
			<g id="g584" transform="translate(108.6095,574.388)">
				<path id="path586" inkscape:connector-curvature="0" class="st1" d="M163-30.5c10.5,0,18.8-7.3,18.8-18.2
					c0-10.9-8.4-18.2-18.8-18.2c-10.5,0-18.8,7.3-18.8,18.2C144.2-37.8,152.5-30.5,163-30.5 M163-59.1c6.3,0,10.2,5,10.2,10.4
					s-3.8,10.4-10.2,10.4c-6.3,0-10.2-5-10.2-10.4S156.6-59.1,163-59.1"/>
			</g>
			<g id="g588" transform="translate(128.097,561.8734)">
				<path id="path590" inkscape:connector-curvature="0" class="st1" d="M198.7-53.5h-8.2v5.6h-0.1c-1.6-3.5-4.8-6.4-10.6-6.4
					c-9.3,0-12.6,6.6-12.6,13.6v21.8h8.6v-17.5c0-3.8,0.3-10.2,6.3-10.2c5.7,0,7.9,4.2,7.9,8.8v18.9h8.7V-53.5z"/>
			</g>
			<g id="g592" transform="translate(130.157,574.083)">
				<path id="path594" inkscape:connector-curvature="0" class="st1" d="M202.5-31.1h8.6v-5.5h0.1c1.9,4,5.7,6.3,10.2,6.3
					c1.1,0,2.1-0.2,3.1-0.5v-8.4c-1.4,0.4-2.8,0.6-4.2,0.6c-8.1,0-9.3-6.8-9.3-8.7v-18.5h-8.6V-31.1z"/>
			</g>
			<g id="g596" transform="translate(146.888,563.358)">
				<path id="path598" inkscape:connector-curvature="0" class="st1" d="M233.2-50.8c8.8,0.2,13.1-3.8,13.1-12.5
					c0-10.9-8.2-19.4-20.6-19.4c-10,0-17.8,5.1-17.8,11.7c0,4.3,4.1,7.9,7.7,8.9v0.2c-3.8,1.1-5.8,4.5-5.8,9c0,7.4,5.5,9.9,9,10.3
					v0.2c-4.8,2.2-7.4,6-7.4,10.9c0,8.2,8.1,13.1,15.6,13.1c5,0,8.6-1.3,11.2-3.2c1.7,2,3.9,3.9,6.9,3.9c2.7,0,6.1-1.6,6.1-4.7
					c0-2.4-1.6-4.6-4.5-4.6c-2.7,0-4.1,2.1-4.1,4.1c0,1.8,0.5,3,2.4,3.9v0.2c-3.5-0.5-4.3-2.4-5.9-4c2.5-2.2,3.9-6.2,3.9-9.1
					c0-8.5-8.3-12.9-16-12.9c-1.4,0-2.6,0.2-3.7,0.5c-1,0.3-2,0.5-3,0.5c-3.4,0-7.3-2.4-7.3-4.7c0-2.4,3-2.5,5.3-2.5H233.2z
					 M217.1-62.1c-2.4-2.6-3.8-5.2-3.8-9.1c0.2-4.3,4.6-9.8,12.6-9.8c9.1,0,17.1,6.1,17.1,12.6c0,5.5-3,6.3-11.9,6.3H217.1z
					 M232.7-31.4c-0.1,10.3-1.4,11.5-5.6,11.5c-4.7,0-5.5-3.9-5.5-11.2c0-10.8,1.9-11.9,5.5-11.9C230.2-43.1,232.6-42.4,232.7-31.4"
					/>
			</g>
			<g id="g600">
				<g id="g602">
				</g>
				<g id="g622">
					<g id="g620" class="st2">
						<g id="g618">
							<g id="g616">
								<g id="g614" transform="translate(163.9871,574.384)">
									<path id="path612" inkscape:connector-curvature="0" class="st1" d="M264.6-30.5c-10.2,0-17.8-7.5-17.8-18.2
										c0-10.1,6.6-18.2,17.5-18.2c6.4,0,11.3,1.9,15.4,7.2l-4.4,3.4c-2.7-3.5-6.1-5.3-11-5.3c-6.3,0-10.9,5.1-11.3,11.1h28v1.9
										C281-37.2,274.3-30.5,264.6-30.5 M253-45.6c0.7,5.9,5,9.8,11.3,9.8c6.4,0,10.2-3.9,10.4-9.8H253z M316.5-31.4h-5.8v-16.9
										c0-7.9-3.3-13.3-10.7-13.3c-5.4,0-7.9,3.6-7.9,9.4v20.8h-5.8v-21.4c0-8.4,4.1-14.1,13.2-14.1c5.7,0,10,3.2,11.5,6.6h0.1
										c0-1.9,0.1-3.8,0.1-5.7h5.5c0,2.3-0.3,5-0.3,8.2L316.5-31.4z M238.3-57.6c-2.4,0-4.4-2-4.4-4.4c0-2.4,2.1-4.4,4.4-4.4
										c2.3,0,4.4,2,4.4,4.4C242.8-59.6,240.8-57.6,238.3-57.6"/>
								</g>
							</g>
						</g>
					</g>
				</g>
			</g>
			<g id="g624" transform="translate(130.3783,556.2869)" class="st3">
				<path id="path626" inkscape:connector-curvature="0" class="st4" d="M202.9-63.7c0,0.3,0.1,0.6,0.2,0.9c0.1,0.3,0.3,0.6,0.6,0.8
					c0.2,0.2,0.5,0.4,0.9,0.6c0.3,0.1,0.8,0.2,1.2,0.2c0.8,0,1.4-0.2,1.8-0.7c0.5-0.5,0.7-1.1,0.7-1.8H202.9z M209-67.5
					c-0.3-0.5-0.8-0.9-1.2-1.2c-0.5-0.3-1-0.5-1.7-0.5c-0.8,0-1.5,0.2-2,0.7c-0.6,0.5-0.9,1.1-1.1,1.9h9.6v1.3c0,1.1-0.1,2-0.4,2.9
					c-0.3,0.9-0.7,1.6-1.3,2.2c-0.5,0.6-1.2,1.1-2,1.4c-0.8,0.3-1.6,0.5-2.6,0.5c-1,0-2-0.2-2.9-0.5c-0.9-0.3-1.7-0.8-2.4-1.4
					c-0.7-0.6-1.2-1.4-1.6-2.2s-0.6-1.8-0.6-2.9s0.2-2,0.6-2.9c0.4-0.9,0.9-1.6,1.6-2.2s1.5-1.1,2.4-1.4c0.9-0.3,1.9-0.5,2.9-0.5
					c1.1,0,2.1,0.2,3.1,0.7c1,0.5,1.8,1.1,2.5,2L209-67.5z M192.3-71.9h4.1v19.7h-4.1V-71.9z M180.1-62.8c0.6,0.6,1.4,0.9,2.4,0.9
					c1,0,1.9-0.3,2.4-0.9c0.6-0.6,0.9-1.4,0.9-2.4s-0.3-1.8-0.9-2.5c-0.6-0.6-1.4-0.9-2.4-0.9c-1,0-1.9,0.3-2.4,0.9
					c-0.6,0.6-0.9,1.4-0.9,2.5S179.6-63.4,180.1-62.8 M175.7-68.1c0.4-0.9,0.9-1.6,1.6-2.2c0.7-0.6,1.5-1.1,2.4-1.4
					c0.9-0.3,1.9-0.5,2.9-0.5s2,0.2,2.9,0.5c0.9,0.3,1.7,0.8,2.4,1.4s1.2,1.4,1.6,2.2c0.4,0.9,0.6,1.8,0.6,2.9s-0.2,2-0.6,2.9
					s-0.9,1.6-1.6,2.2c-0.7,0.6-1.5,1.1-2.4,1.4c-0.9,0.3-1.9,0.5-2.9,0.5s-2-0.2-2.9-0.5c-0.9-0.3-1.7-0.8-2.4-1.4
					c-0.7-0.6-1.2-1.4-1.6-2.2c-0.4-0.9-0.6-1.8-0.6-2.9S175.3-67.3,175.7-68.1 M163.6-62.8c0.6,0.6,1.4,0.9,2.4,0.9
					s1.9-0.3,2.4-0.9c0.6-0.6,0.9-1.4,0.9-2.4s-0.3-1.8-0.9-2.5c-0.6-0.6-1.4-0.9-2.4-0.9s-1.9,0.3-2.4,0.9
					c-0.6,0.6-0.9,1.4-0.9,2.5S163-63.4,163.6-62.8 M159-78.2h4.1v7.7h0.1c0.5-0.6,1.1-1.1,1.8-1.4s1.5-0.4,2.4-0.4
					c1,0,1.8,0.2,2.6,0.6c0.8,0.4,1.4,0.9,1.9,1.6c0.5,0.7,0.9,1.4,1.2,2.3c0.3,0.9,0.4,1.7,0.4,2.7c0,1-0.2,1.9-0.5,2.8
					c-0.3,0.8-0.8,1.6-1.3,2.2c-0.6,0.6-1.3,1.1-2.1,1.4c-0.8,0.3-1.7,0.5-2.7,0.5c-0.5,0-0.9-0.1-1.3-0.2c-0.4-0.1-0.8-0.3-1.2-0.5
					c-0.4-0.2-0.7-0.4-0.9-0.7c-0.3-0.2-0.5-0.5-0.6-0.7h-0.1v1.8H159V-78.2z M146.6-62.8c0.6,0.6,1.4,0.9,2.4,0.9s1.9-0.3,2.4-0.9
					c0.6-0.6,0.9-1.4,0.9-2.4s-0.3-1.8-0.9-2.5c-0.6-0.6-1.4-0.9-2.4-0.9c-1,0-1.9,0.3-2.4,0.9c-0.6,0.6-0.9,1.4-0.9,2.5
					S146.1-63.4,146.6-62.8 M142.2-68.1c0.4-0.9,0.9-1.6,1.6-2.2c0.7-0.6,1.5-1.1,2.4-1.4c0.9-0.3,1.9-0.5,2.9-0.5s2,0.2,2.9,0.5
					c0.9,0.3,1.7,0.8,2.4,1.4c0.7,0.6,1.2,1.4,1.6,2.2c0.4,0.9,0.6,1.8,0.6,2.9s-0.2,2-0.6,2.9s-0.9,1.6-1.6,2.2
					c-0.7,0.6-1.5,1.1-2.4,1.4c-0.9,0.3-1.9,0.5-2.9,0.5s-2-0.2-2.9-0.5c-0.9-0.3-1.7-0.8-2.4-1.4c-0.7-0.6-1.2-1.4-1.6-2.2
					s-0.6-1.8-0.6-2.9S141.8-67.3,142.2-68.1 M131.2-71.9h4.1v5.6c0,0.7,0,1.3,0.1,1.8c0.1,0.5,0.2,1,0.5,1.4
					c0.2,0.4,0.6,0.7,1.1,0.9c0.5,0.2,1.1,0.3,1.9,0.3c0.3,0,0.6,0,0.9-0.1c0.3,0,0.6-0.1,0.9-0.2v3.8c-0.2,0.1-0.4,0.1-0.7,0.1
					c-0.2,0-0.5,0-0.7,0c-0.9,0-1.7-0.2-2.3-0.6c-0.6-0.4-1.1-1-1.6-1.9h-0.1v2.1h-4.1V-71.9z M128.9-58.6h-3.6v4h-4.1v-4h-2.6v-3.3
					h2.6v-6.4c0-0.7,0.1-1.4,0.4-1.9c0.2-0.5,0.6-0.9,1-1.3c0.4-0.3,1-0.6,1.5-0.7c0.6-0.1,1.2-0.2,1.9-0.2c0.5,0,1,0,1.5,0.1
					c0.5,0.1,1,0.2,1.4,0.3v3.4c-0.2-0.2-0.5-0.3-0.8-0.3c-0.4,0-0.6-0.1-0.9-0.1c-0.4,0-0.8,0.1-1.1,0.2s-0.5,0.3-0.6,0.5
					c-0.1,0.2-0.2,0.5-0.2,0.8c0,0.3-0.1,0.6-0.1,1v4.5h3.6L128.9-58.6z M107.9-63.7c0,0.3,0.1,0.6,0.2,0.9c0.1,0.3,0.3,0.6,0.6,0.8
					c0.2,0.2,0.5,0.4,0.9,0.6c0.3,0.1,0.8,0.2,1.2,0.2c0.8,0,1.4-0.2,1.8-0.7c0.5-0.5,0.7-1.1,0.7-1.8H107.9z M114-67.5
					c-0.3-0.5-0.8-0.9-1.2-1.2c-0.5-0.3-1-0.5-1.7-0.5c-0.8,0-1.5,0.2-2,0.7c-0.5,0.5-0.9,1.1-1.1,1.9h9.6v1.3c0,1.1-0.1,2-0.4,2.9
					c-0.3,0.9-0.7,1.6-1.3,2.2c-0.5,0.6-1.2,1.1-2,1.4c-0.8,0.3-1.6,0.5-2.6,0.5c-1,0-2-0.2-2.9-0.5c-0.9-0.3-1.7-0.8-2.4-1.4
					c-0.7-0.6-1.2-1.4-1.6-2.2c-0.4-0.9-0.6-1.8-0.6-2.9s0.2-2,0.6-2.9c0.4-0.9,0.9-1.6,1.6-2.2c0.7-0.6,1.5-1.1,2.4-1.4
					c0.9-0.3,1.9-0.5,2.9-0.5c1.1,0,2.1,0.2,3.1,0.7c1,0.5,1.8,1.1,2.5,2L114-67.5z M80.5-71.9h4.1v6.7c0,0.4,0,0.9,0.1,1.3
					c0.1,0.4,0.2,0.8,0.3,1.1c0.2,0.3,0.4,0.6,0.8,0.8c0.3,0.2,0.8,0.3,1.3,0.3c0.5,0,0.8-0.1,1.1-0.3c0.2-0.2,0.4-0.5,0.5-0.8
					s0.2-0.6,0.2-1c0-0.3,0-0.6,0-0.9v-7.1h4.1v7.1c0,0.4,0,0.8,0.1,1.2c0.1,0.4,0.2,0.7,0.4,1c0.2,0.3,0.4,0.5,0.8,0.6
					c0.3,0.2,0.7,0.2,1.2,0.2c0.7,0,1.2-0.2,1.4-0.7c0.3-0.5,0.4-1,0.4-1.6v-7.8h4.1v7.9c0,0.8-0.1,1.6-0.2,2.3
					c-0.2,0.7-0.4,1.3-0.8,1.8c-0.4,0.5-0.8,0.9-1.5,1.2s-1.4,0.5-2.3,0.5c-1,0-1.8-0.2-2.5-0.5c-0.7-0.4-1.3-1-1.7-1.8
					c-0.4,0.8-0.9,1.4-1.6,1.8c-0.7,0.4-1.6,0.6-2.5,0.6c-0.5,0-1-0.1-1.4-0.2c-0.4-0.1-0.8-0.3-1.1-0.5c-0.3-0.2-0.6-0.4-0.9-0.7
					c-0.2-0.3-0.4-0.5-0.5-0.8h-0.1v1.8h-4V-71.9z M77.7-62.8c-0.3,0.8-0.8,1.5-1.4,2.1c-0.6,0.6-1.3,1.1-2.2,1.4
					c-0.8,0.3-1.8,0.5-2.8,0.5c-1,0-1.9-0.2-2.7-0.5c-0.8-0.3-1.6-0.8-2.2-1.4c-0.6-0.6-1.1-1.3-1.4-2.1c-0.3-0.8-0.5-1.7-0.5-2.7
					s0.2-1.9,0.5-2.7c0.3-0.8,0.8-1.5,1.4-2.1c0.6-0.6,1.3-1.1,2.2-1.4c0.8-0.3,1.7-0.5,2.7-0.5c1,0,1.9,0.2,2.8,0.5
					c0.8,0.3,1.6,0.8,2.2,1.4c0.6,0.6,1.1,1.3,1.4,2.1c0.3,0.8,0.5,1.7,0.5,2.7S78-63.6,77.7-62.8 M75.9-67.5
					c-0.2-0.6-0.6-1.2-1-1.6c-0.4-0.5-0.9-0.8-1.5-1.1c-0.6-0.3-1.3-0.4-2-0.4s-1.4,0.1-2,0.4c-0.6,0.3-1.1,0.6-1.5,1.1
					c-0.4,0.5-0.7,1-1,1.6c-0.2,0.6-0.3,1.3-0.3,2c0,0.7,0.1,1.4,0.3,2c0.2,0.6,0.6,1.2,1,1.6c0.4,0.5,0.9,0.8,1.5,1.1
					c0.6,0.3,1.3,0.4,2,0.4s1.4-0.1,2-0.4c0.6-0.3,1.1-0.6,1.5-1.1c0.4-0.5,0.7-1,1-1.6c0.2-0.6,0.3-1.3,0.3-2
					C76.2-66.2,76.1-66.9,75.9-67.5 M56.9-71.9h1.8v7.3c0,0.4,0.1,0.9,0.2,1.4c0.2,0.5,0.4,0.9,0.7,1.3c0.3,0.4,0.7,0.8,1.2,1
					c0.5,0.3,1.1,0.4,1.8,0.4c0.5,0,0.8,0,1-0.1l0.4,1.8c-0.4,0.1-0.8,0.2-1.3,0.2c-0.6,0-1.1-0.1-1.5-0.2c-0.5-0.2-0.8-0.4-1.2-0.6
					c-0.3-0.3-0.6-0.5-0.9-0.9s-0.4-0.7-0.5-1h-0.1v2.4h-1.8c0-0.9,0-1.7,0.1-2.3c0-0.6,0-1.2,0-1.7L56.9-71.9z M53.8-71.9
					c0,0.5-0.1,1-0.1,1.5c0,0.5,0,1,0,1.3v10h-1.8v-6.6c0-1.2-0.2-2.1-0.5-2.8c-0.4-0.7-0.8-1.2-1.3-1.5c-0.5-0.3-0.9-0.5-1.3-0.6
					c-0.4-0.1-0.7-0.1-0.8-0.1c-0.7,0-1.2,0.1-1.7,0.3c-0.4,0.2-0.8,0.5-1.1,0.9c-0.3,0.4-0.5,0.8-0.6,1.4c-0.1,0.5-0.2,1.2-0.2,1.9
					v7.1h-1.8v-8.2c0-1.6,0.4-2.9,1.2-3.7c0.8-0.9,2-1.3,3.7-1.3c0.4,0,0.8,0.1,1.3,0.2c0.4,0.1,0.8,0.3,1.2,0.5
					c0.4,0.2,0.7,0.5,1,0.8c0.3,0.3,0.6,0.6,0.8,1h0.1c0-0.3,0-0.7,0-1c0-0.3,0-0.7,0.1-1H53.8z M40-66v0.8c0,0.9-0.1,1.7-0.4,2.5
					c-0.3,0.8-0.7,1.5-1.2,2c-0.5,0.6-1.2,1-1.9,1.4c-0.8,0.3-2,0.5-3,0.5c-0.9,0-1.4-0.2-2.2-0.5c-0.8-0.3-1.5-0.8-2.1-1.4
					c-0.6-0.6-1-1.3-1.4-2.1c-0.3-0.8-0.5-1.7-0.5-2.7s0.2-1.9,0.5-2.7c0.3-0.8,0.8-1.5,1.4-2.1c0.6-0.6,1.3-1.1,2.1-1.4
					c0.8-0.3,1.7-0.5,2.7-0.5c1.1,0,2.1,0.2,3,0.6c0.9,0.4,1.8,1.1,2.5,2.1l-1.4,1.2c-0.4-0.6-0.9-1.1-1.6-1.6
					c-0.7-0.5-1.5-0.7-2.5-0.7c-0.6,0-1.2,0.1-1.8,0.4c-0.5,0.2-1,0.6-1.5,1c-0.4,0.4-0.8,0.9-1,1.5c-0.3,0.6-0.4,1.2-0.5,1.8H40z
					 M29.3-64.5c0,0.5,0.1,1,0.4,1.5c0.2,0.5,0.6,0.9,1,1.3c0.4,0.4,0.9,0.7,1.4,0.9c0.5,0.2,1.1,0.3,1.7,0.3c1.3,0,2.3-0.4,3.1-1.1
					c0.7-0.8,1.1-1.8,1.1-3H29.3z"/>
			</g>
		</g>
	</g>
</g>
</svg>
