<?xml version="1.0" encoding="UTF-8"?>
<!-- Generator: Adobe Illustrator 23.0.2, SVG Export Plug-In . SVG Version: 6.00 Build 0)  -->
<svg version="1.1" id="Lager_1" xmlns="http://www.w3.org/2000/svg" xmlns:xlink="http://www.w3.org/1999/xlink" x="0px" y="0px" viewBox="0 0 360 230" style="enable-background:new 0 0 360 230;" xml:space="preserve">
<style type="text/css">
	.st0{fill:#3E3E3D;}
	.st1{fill:#DB5461;}
</style>
<g>
	<g>
		<g>
			<path class="st0" d="M21.47,27.49v28.92h-3.88V27.49H21.47z"/>
			<path class="st0" d="M54.79,27.49v29.88h-0.12L33.43,35.81l0.08,20.6h-3.92v-29.8h0.2l21.2,21.8l-0.08-20.92H54.79z"/>
			<path class="st0" d="M79.25,27.49v3.72h-7.76v25.2h-3.88v-25.2h-7.56v-3.72H79.25z"/>
			<path class="st0" d="M103.32,27.49v3.72H88.39v8.8h13.32v3.72H88.39v8.92h15.48v3.76H84.51V27.49H103.32z"/>
			<path class="st0" d="M125.89,56.41l-6.8-10.68c-0.21,0.03-0.53,0.04-0.96,0.04h-4.28v10.64h-3.88V27.49h7.72     c1.97,0,3.73,0.35,5.28,1.04c1.55,0.69,2.76,1.71,3.64,3.06c0.88,1.35,1.32,2.97,1.32,4.86c0,1.79-0.39,3.43-1.18,4.92     c-0.79,1.49-1.99,2.63-3.62,3.4l7.28,11.64H125.89z M122.55,40.37c0.92-1.09,1.38-2.35,1.38-3.76c0-0.85-0.2-1.69-0.58-2.52     c-0.39-0.83-1-1.51-1.84-2.06c-0.84-0.55-1.9-0.82-3.18-0.82h-4.48v10.8h4.2C120.13,42.01,121.63,41.46,122.55,40.37z"/>
			<path class="st0" d="M160.99,27.49v29.88h-0.12l-21.24-21.56l0.08,20.6h-3.92v-29.8h0.2l21.2,21.8l-0.08-20.92H160.99z"/>
			<path class="st0" d="M183.92,48.81H172.8l-3.08,7.6h-3.84l12.64-30.12h0.24l12.64,30.12h-4.48L183.92,48.81z M182.6,45.45     l-4.12-10.56l-4.28,10.56H182.6z"/>
			<path class="st0" d="M210.58,27.49v3.72h-7.76v25.2h-3.88v-25.2h-7.56v-3.72H210.58z"/>
			<path class="st0" d="M219.72,27.49v28.92h-3.88V27.49H219.72z"/>
			<path class="st0" d="M228.13,34.61c1.33-2.27,3.13-4.07,5.38-5.42c2.25-1.35,4.71-2.02,7.38-2.02c2.64,0,5.09,0.67,7.36,2.02     c2.27,1.35,4.07,3.15,5.42,5.42c1.35,2.27,2.02,4.72,2.02,7.36c0,2.67-0.67,5.14-2,7.4c-1.33,2.27-3.14,4.06-5.42,5.38     c-2.28,1.32-4.74,1.98-7.38,1.98c-2.67,0-5.13-0.65-7.4-1.96s-4.06-3.09-5.38-5.34c-1.32-2.25-1.98-4.74-1.98-7.46     C226.13,39.33,226.8,36.88,228.13,34.61z M231.57,47.49c0.96,1.68,2.27,3.01,3.94,4c1.67,0.99,3.49,1.48,5.46,1.48     c1.97,0,3.78-0.49,5.42-1.46c1.64-0.97,2.93-2.31,3.88-4c0.95-1.69,1.42-3.54,1.42-5.54c0-2-0.48-3.85-1.44-5.56     c-0.96-1.71-2.27-3.05-3.92-4.04c-1.65-0.99-3.47-1.48-5.44-1.48c-1.97,0-3.79,0.5-5.44,1.5c-1.65,1-2.95,2.35-3.9,4.06     c-0.95,1.71-1.42,3.56-1.42,5.56C230.13,43.98,230.61,45.81,231.57,47.49z"/>
			<path class="st0" d="M287.27,27.49v29.88h-0.12l-21.24-21.56l0.08,20.6h-3.92v-29.8h0.2l21.2,21.8l-0.08-20.92H287.27z"/>
			<path class="st0" d="M310.2,48.81h-11.12l-3.08,7.6h-3.84l12.64-30.12h0.24l12.64,30.12h-4.48L310.2,48.81z M308.88,45.45     l-4.12-10.56l-4.28,10.56H308.88z"/>
			<path class="st0" d="M326.42,27.49v25.16h14.72v3.76h-18.6V27.49H326.42z"/>
		</g>
		<g>
			<path class="st1" d="M82.15,75.54l-25.75,47.3v21.36H42.87v-21.36l-25.28-47.3h16.7l15.77,31.72l15.4-31.72H82.15z"/>
			<path class="st1" d="M86.52,92.52c3.14-5.41,7.4-9.72,12.78-12.92c5.38-3.2,11.21-4.81,17.49-4.81s12.11,1.6,17.49,4.81     c5.38,3.2,9.67,7.51,12.88,12.92c3.2,5.41,4.81,11.23,4.81,17.45c0,6.34-1.6,12.19-4.81,17.54c-3.2,5.35-7.5,9.6-12.88,12.73     c-5.38,3.14-11.21,4.71-17.49,4.71c-6.34,0-12.19-1.57-17.54-4.71c-5.35-3.14-9.6-7.38-12.73-12.73     c-3.14-5.35-4.71-11.2-4.71-17.54C81.81,103.74,83.38,97.93,86.52,92.52z M98.65,120.97c1.9,3.36,4.48,6.02,7.74,7.98     c3.27,1.96,6.89,2.94,10.87,2.94c3.86,0,7.37-0.98,10.54-2.94c3.17-1.96,5.66-4.6,7.46-7.93c1.8-3.33,2.71-7.01,2.71-11.05     c0-4.11-0.93-7.84-2.8-11.2c-1.87-3.36-4.4-6.02-7.6-7.98c-3.21-1.96-6.76-2.94-10.68-2.94c-3.92,0-7.48,0.98-10.68,2.94     c-3.2,1.96-5.74,4.62-7.6,7.98c-1.87,3.36-2.8,7.09-2.8,11.2C95.81,113.94,96.75,117.61,98.65,120.97z"/>
			<path class="st1" d="M178.37,125.08c1.31,1.99,3.05,3.61,5.23,4.85c2.18,1.25,4.51,1.87,7,1.87c2.67,0,5.13-0.62,7.37-1.87     c2.24-1.24,3.99-2.86,5.27-4.85c1.27-1.99,1.91-4.07,1.91-6.25V75.54h13.34v43.57c0,4.91-1.24,9.35-3.73,13.3     c-2.49,3.95-5.86,7.03-10.12,9.24c-4.26,2.21-8.94,3.31-14.04,3.31c-5.1,0-9.77-1.1-13.99-3.31c-4.23-2.21-7.57-5.28-10.03-9.24     c-2.46-3.95-3.69-8.38-3.69-13.3V75.54h13.53v43.29C176.41,121,177.07,123.09,178.37,125.08z"/>
			<path class="st1" d="M273.91,75.54V88.6h-16.7v55.61h-13.53V88.6h-16.05V75.54H273.91z"/>
			<path class="st1" d="M341.41,144.2h-13.53v-27.9h-30.69v27.9h-13.53V75.54h13.53v27.71h30.69V75.54h13.53V144.2z"/>
		</g>
		<g>
			<path class="st0" d="M43.56,163.31v5.03H33.06v34.08h-5.25v-34.08H17.59v-5.03H43.56z"/>
			<path class="st0" d="M81.07,202.41h-5.25v-17.15h-20.5v17.15h-5.25v-39.11h5.25v16.93h20.5v-16.93h5.25V202.41z"/>
			<path class="st0" d="M96.78,163.31v39.11h-5.25v-39.11H96.78z"/>
			<path class="st0" d="M141.3,163.31v40.4h-0.16l-28.72-29.15l0.11,27.86h-5.3v-40.3h0.27l28.67,29.48l-0.11-28.29H141.3z"/>
			<path class="st0" d="M156.94,181l0.65-1.03l16.01-16.66h6.76l-16.17,16.77l17.09,22.34h-6.65l-14.28-18.98l-3.3,3.19l0.05,15.79     h-5.35v-39.11h5.35v15.74L156.94,181z"/>
			<path class="st0" d="M228.71,163.31v5.03h-10.49v34.08h-5.25v-34.08h-10.22v-5.03H228.71z"/>
			<path class="st0" d="M252.23,192.14h-15.04l-4.16,10.28h-5.19l17.09-40.73h0.32l17.09,40.73h-6.06L252.23,192.14z M250.44,187.59     l-5.57-14.28l-5.79,14.28H250.44z"/>
			<path class="st0" d="M302.43,163.31v40.4h-0.16l-28.72-29.15l0.11,27.86h-5.3v-40.3h0.27l28.67,29.48l-0.11-28.29H302.43z"/>
			<path class="st0" d="M318.07,181l0.65-1.03l16.01-16.66h6.76l-16.17,16.77l17.09,22.34h-6.65l-14.28-18.98l-3.3,3.19l0.05,15.79     h-5.35v-39.11h5.35v15.74L318.07,181z"/>
		</g>
	</g>
</g>
</svg>