<?xml version="1.0" encoding="UTF-8"?>
<!-- Generator: Adobe Illustrator 23.0.0, SVG Export Plug-In . SVG Version: 6.00 Build 0)  -->
<svg version="1.0" id="Livello_1" xmlns="http://www.w3.org/2000/svg" xmlns:xlink="http://www.w3.org/1999/xlink" x="0px" y="0px" viewBox="0 0 282.7 181.9" enable-background="new 0 0 282.7 181.9" xml:space="preserve">
<g>
	<g>
		<path fill="#1D1D1B" d="M41.9,49.8v-2.2c0-4.5-3.6-7.7-9.7-7.7c-6.8,0-10.7,4.3-10.3,11.1L5.7,49.3c-0.8-15.4,11.4-24,26.1-24    c17.2,0,27,8.9,27,22.8v42.2H42v-6.2c-2.6,4.5-7.9,8.1-15.2,8.1C13.1,92.3,5.5,83,5.5,73.4c0-12,8.1-18.7,24.3-21.4L41.9,49.8z     M41.9,64.8v-2.8l-9.8,1.8c-6.1,1.2-9.6,3.2-9.6,7.5c0,3.6,3.1,6.1,7.7,6.1C37.1,77.3,41.9,72.4,41.9,64.8z"/>
		<path fill="#1D1D1B" d="M71.2,0h18.1v90.3H71.2V0z"/>
		<path fill="#1D1D1B" d="M146.6,32.8V0h18.1v90.3h-18.1v-5.6c-4.8,5-11,7.5-18.7,7.5c-16.6,0-28.9-14.8-28.9-33.4    c0-18.7,12.3-33.6,28.9-33.6C135.6,25.3,141.8,27.7,146.6,32.8z M146.6,58.9c0-9.4-5.9-16.3-14.7-16.3c-8.8,0-14.8,7-14.8,16.3    c0,9.4,6.1,16.1,14.8,16.1C140.6,75,146.6,68.1,146.6,58.9z"/>
		<path fill="#1D1D1B" d="M211.6,49.8v-2.2c0-4.5-3.6-7.7-9.7-7.7c-6.8,0-10.7,4.3-10.3,11.1l-16.1-1.7c-0.8-15.4,11.4-24,26.1-24    c17.2,0,27,8.9,27,22.8v42.2h-16.8v-6.2c-2.6,4.5-7.9,8.1-15.2,8.1c-13.7,0-21.3-9.3-21.3-18.8c0-12,8.1-18.7,24.3-21.4    L211.6,49.8z M211.6,64.8v-2.8l-9.8,1.8c-6.1,1.2-9.5,3.2-9.5,7.5c0,3.6,3.1,6.1,7.7,6.1C206.8,77.3,211.6,72.4,211.6,64.8z"/>
	</g>
	<g>
		<path fill="#FDC608" d="M242.1,9.2l12.4,4.1V0h12v13.3L279,9.2l3.9,11.5l-12.5,4.1l7.7,10.6l-9.7,7.2l-7.9-10.7l-8,10.7l-9.7-7.2    l7.9-10.6l-12.5-4.1L242.1,9.2z"/>
	</g>
</g>
<g>
	<path fill="#1D1D1B" d="M72.4,155.7v-14.8h10v1.3h-8.6v5.3h7.7v1.3h-7.7v5.6h8.6v1.3H72.4z"/>
	<path fill="#1D1D1B" d="M92.8,145.6v10.1h-1.4v-1.4c-0.8,1.1-1.9,1.8-3.5,1.8c-2.2,0-3.5-1.4-3.5-3.8v-6.6h1.4v6.3   c0,1.9,0.8,2.8,2.5,2.8c1.9,0,3.1-1.4,3.1-3.7v-5.4H92.8z"/>
	<path fill="#1D1D1B" d="M95.7,155.7v-10.1h1.4v1.2c0.6-1,1.5-1.5,2.7-1.5c1.8,0,3.2,1.4,3.2,3.6l0,0.4l-1.4,0.2c0-0.3,0-0.4,0-0.5   c0-1.5-0.8-2.3-2-2.3c-1.5,0-2.5,1.2-2.5,3.3v5.8H95.7z"/>
	<path fill="#1D1D1B" d="M114.6,150.7c0,3-2.1,5.3-5.2,5.3c-3.1,0-5.2-2.3-5.2-5.3c0-3,2.2-5.4,5.2-5.4   C112.5,145.3,114.6,147.6,114.6,150.7z M113.3,150.7c0-2.3-1.6-4.1-3.8-4.1c-2.2,0-3.8,1.8-3.8,4.1c0,2.3,1.6,4,3.8,4   C111.7,154.7,113.3,153,113.3,150.7z"/>
	<path fill="#1D1D1B" d="M116.9,160.5v-14.8h1.4v1.7c0.8-1.3,2.2-2,3.9-2c2.8,0,4.8,2.3,4.8,5.3s-2,5.4-4.8,5.4   c-1.7,0-3-0.8-3.9-2.1v6.5H116.9z M125.6,150.6c0-2.3-1.5-4-3.7-4c-2.1,0-3.7,1.7-3.7,4c0,2.3,1.5,4.1,3.7,4.1   C124.1,154.7,125.6,152.9,125.6,150.6z"/>
	<path fill="#1D1D1B" d="M138,149.9v0.8h-8.1c0.1,2.4,1.6,4,3.7,4c1.7,0,3-1.1,3.3-2.8l1.4,0.2c-0.3,2.3-2.2,3.8-4.6,3.8   c-3,0-5.1-2.2-5.1-5.3c0-3.1,2-5.4,4.9-5.4C136.2,145.3,138,147.2,138,149.9z M136.6,149.5c0-1.7-1.3-2.9-3.1-2.9   c-1.8,0-3.1,1.2-3.5,2.9H136.6z"/>
	<path fill="#1D1D1B" d="M146.8,149.3v-0.5c0-1.3-0.9-2.2-2.6-2.2c-1.7,0-2.6,1-2.6,2.5l0,0.3l-1.4-0.1c-0.1-2.6,1.6-4,3.9-4   c2.6,0,4,1.4,4,3.6v6.8h-1.3v-1.4c-0.7,1.1-1.8,1.7-3.2,1.7c-2.4,0-3.5-1.5-3.5-3c0-1.9,1.3-2.9,3.8-3.3L146.8,149.3z M146.8,151.3   v-0.8l-2.7,0.4c-1.8,0.3-2.7,0.9-2.7,2c0,1.1,0.9,1.8,2.4,1.8C145.6,154.7,146.8,153.4,146.8,151.3z"/>
	<path fill="#1D1D1B" d="M151,155.7v-10.1h1.4v1.4c0.8-1.1,1.9-1.8,3.5-1.8c2.2,0,3.5,1.4,3.5,3.8v6.6H158v-6.3   c0-1.9-0.8-2.8-2.5-2.8c-1.9,0-3.1,1.4-3.1,3.7v5.4H151z"/>
	<path fill="#1D1D1B" d="M166.6,155.7l6.1-14.8h1.6l6.1,14.8h-1.5l-1.9-4.6h-7l-1.9,4.6H166.6z M170.5,149.8h5.9l-3-7.3L170.5,149.8   z"/>
	<path fill="#1D1D1B" d="M182.6,151.7c0.2,1.8,1.4,3,3.1,3c1.6,0,2.6-0.8,2.6-1.9c0-1-0.8-1.6-2.8-1.8c-2.4-0.2-3.6-1.2-3.6-3   c0-1.6,1.5-2.7,3.6-2.7c1.9,0,3.4,1.2,3.8,3.1l-1.3,0.4c-0.2-1.4-1.2-2.2-2.5-2.2c-1.3,0-2.2,0.6-2.2,1.4c0,0.9,0.6,1.5,2.4,1.7   c2.7,0.3,4,1.3,4,3.1c0,1.9-1.6,3.2-4,3.2c-1.2,0-2.2-0.4-3.1-1.1c-0.8-0.7-1.3-1.7-1.5-2.9L182.6,151.7z"/>
	<path fill="#1D1D1B" d="M192.4,151.7c0.2,1.8,1.4,3,3.1,3c1.6,0,2.6-0.8,2.6-1.9c0-1-0.8-1.6-2.8-1.8c-2.4-0.2-3.6-1.2-3.6-3   c0-1.6,1.5-2.7,3.6-2.7c1.9,0,3.4,1.2,3.8,3.1l-1.3,0.4c-0.2-1.4-1.2-2.2-2.5-2.2c-1.3,0-2.2,0.6-2.2,1.4c0,0.9,0.6,1.5,2.4,1.7   c2.7,0.3,4,1.3,4,3.1c0,1.9-1.6,3.2-4,3.2c-1.2,0-2.2-0.4-3.1-1.1c-0.8-0.7-1.3-1.7-1.5-2.9L192.4,151.7z"/>
	<path fill="#1D1D1B" d="M211.4,150.7c0,3-2.1,5.3-5.2,5.3c-3.1,0-5.2-2.3-5.2-5.3c0-3,2.2-5.4,5.2-5.4   C209.3,145.3,211.4,147.6,211.4,150.7z M210,150.7c0-2.3-1.6-4.1-3.8-4.1c-2.2,0-3.8,1.8-3.8,4.1c0,2.3,1.6,4,3.8,4   C208.4,154.7,210,153,210,150.7z"/>
	<path fill="#1D1D1B" d="M222.3,148.7l-1.3,0.4c-0.2-1.5-1.4-2.4-3-2.4c-2.1,0-3.6,1.7-3.6,3.9c0,2.5,1.5,4.2,3.7,4.2   c1.8,0,3.2-1.2,3.4-3l1.3,0.3c-0.3,2.3-2.3,4-4.7,4c-3,0-5.1-2.2-5.1-5.3c0-3.1,2-5.4,4.9-5.4C220.2,145.3,221.8,146.6,222.3,148.7   z"/>
	<path fill="#1D1D1B" d="M226.6,142.7c0,0.6-0.5,1.1-1,1.1c-0.6,0-1.1-0.5-1.1-1.1c0-0.6,0.5-1.1,1.1-1.1   C226.1,141.6,226.6,142.1,226.6,142.7z M224.8,155.7v-10.1h1.4v10.1H224.8z"/>
	<path fill="#1D1D1B" d="M235.4,149.3v-0.5c0-1.3-0.9-2.2-2.6-2.2c-1.7,0-2.6,1-2.6,2.5l0,0.3l-1.4-0.1c-0.1-2.6,1.6-4,3.9-4   c2.6,0,4,1.4,4,3.6v6.8h-1.3v-1.4c-0.7,1.1-1.8,1.7-3.2,1.7c-2.4,0-3.5-1.5-3.5-3c0-1.9,1.3-2.9,3.8-3.3L235.4,149.3z M235.4,151.3   v-0.8l-2.7,0.4c-1.8,0.3-2.7,0.9-2.7,2c0,1.1,0.9,1.8,2.4,1.8C234.1,154.7,235.4,153.4,235.4,151.3z"/>
	<path fill="#1D1D1B" d="M238.5,146.9v-1.3h2v-3.1h1.4v3.1h5.4v1.3H242v5.4c0,1.6,0.8,2.5,2.3,2.5c1.4,0,2.2-1.1,2.1-2.7l1.4,0.1   c0.1,2.4-1.4,3.9-3.4,3.9c-2.3,0-3.7-1.4-3.7-3.8v-5.3H238.5z"/>
	<path fill="#1D1D1B" d="M251.6,142.7c0,0.6-0.5,1.1-1,1.1c-0.6,0-1.1-0.5-1.1-1.1c0-0.6,0.5-1.1,1.1-1.1   C251.1,141.6,251.6,142.1,251.6,142.7z M249.9,155.7v-10.1h1.4v10.1H249.9z"/>
	<path fill="#1D1D1B" d="M263.8,150.7c0,3-2.1,5.3-5.2,5.3c-3.1,0-5.2-2.3-5.2-5.3c0-3,2.2-5.4,5.2-5.4   C261.7,145.3,263.8,147.6,263.8,150.7z M262.5,150.7c0-2.3-1.6-4.1-3.8-4.1c-2.2,0-3.8,1.8-3.8,4.1c0,2.3,1.6,4,3.8,4   C260.9,154.7,262.5,153,262.5,150.7z"/>
	<path fill="#1D1D1B" d="M266.1,155.7v-10.1h1.4v1.4c0.8-1.1,1.9-1.8,3.5-1.8c2.2,0,3.5,1.4,3.5,3.8v6.6h-1.4v-6.3   c0-1.9-0.8-2.8-2.5-2.8c-1.9,0-3.1,1.4-3.1,3.7v5.4H266.1z"/>
</g>
<g>
	<path fill="#1D1D1B" d="M71.2,168v-1.3h2v-1.2c0-2.2,1.5-3.9,3.7-3.9c1.9,0,3.3,1.3,3.4,3.1l-1.3,0.3c0-1.3-0.8-2.1-2-2.1   c-1.4,0-2.3,1-2.3,2.6v1.2h5.6v1.3h-5.6v8.8h-1.4V168H71.2z"/>
	<path fill="#1D1D1B" d="M90.6,171.8c0,3-2.1,5.3-5.2,5.3c-3.1,0-5.2-2.3-5.2-5.3c0-3,2.2-5.4,5.2-5.4   C88.5,166.4,90.6,168.8,90.6,171.8z M89.3,171.8c0-2.3-1.6-4.1-3.8-4.1c-2.2,0-3.8,1.8-3.8,4.1c0,2.3,1.6,4,3.8,4   C87.7,175.8,89.3,174.2,89.3,171.8z"/>
	<path fill="#1D1D1B" d="M92.9,176.8v-10.1h1.4v1.2c0.6-1,1.5-1.5,2.7-1.5c1.8,0,3.2,1.4,3.2,3.6l0,0.4l-1.4,0.2c0-0.3,0-0.4,0-0.5   c0-1.5-0.8-2.3-2-2.3c-1.5,0-2.5,1.2-2.5,3.3v5.8H92.9z"/>
	<path fill="#1D1D1B" d="M107.7,176.8V162h1.4v13.5h8.4v1.3H107.7z"/>
	<path fill="#1D1D1B" d="M128.7,171.8c0,3-2.1,5.3-5.2,5.3c-3.1,0-5.2-2.3-5.2-5.3c0-3,2.2-5.4,5.2-5.4   C126.6,166.4,128.7,168.8,128.7,171.8z M127.3,171.8c0-2.3-1.6-4.1-3.8-4.1c-2.2,0-3.8,1.8-3.8,4.1c0,2.3,1.6,4,3.8,4   C125.7,175.8,127.3,174.2,127.3,171.8z"/>
	<path fill="#1D1D1B" d="M139.6,169.8l-1.3,0.4c-0.2-1.5-1.4-2.4-3-2.4c-2.1,0-3.6,1.7-3.6,3.9c0,2.5,1.5,4.2,3.7,4.2   c1.8,0,3.2-1.2,3.4-3l1.3,0.3c-0.3,2.3-2.3,4-4.7,4c-3,0-5.1-2.2-5.1-5.3c0-3.1,2-5.4,4.9-5.4C137.5,166.4,139.2,167.8,139.6,169.8   z"/>
	<path fill="#1D1D1B" d="M148.5,170.4v-0.5c0-1.3-0.9-2.2-2.6-2.2c-1.7,0-2.6,1-2.6,2.5l0,0.3l-1.4-0.1c-0.1-2.6,1.6-4,3.9-4   c2.6,0,4,1.4,4,3.6v6.8h-1.3v-1.4c-0.7,1.1-1.8,1.7-3.2,1.7c-2.4,0-3.5-1.5-3.5-3c0-1.9,1.3-2.9,3.8-3.3L148.5,170.4z M148.5,172.5   v-0.8l-2.7,0.4c-1.8,0.3-2.7,0.9-2.7,2c0,1.1,0.9,1.8,2.4,1.8C147.2,175.9,148.5,174.5,148.5,172.5z"/>
	<path fill="#1D1D1B" d="M152.7,176.8V162h1.4v14.8H152.7z"/>
	<path fill="#1D1D1B" d="M162.5,176.8V162h4.9c4.1-0.1,7.1,3.3,7.1,7.4c0.1,4.1-3,7.5-7.1,7.4H162.5z M163.9,175.5h3.5   c3.3,0,5.7-2.6,5.7-6c0-3.5-2.4-6.1-5.7-6.1h-3.5V175.5z"/>
	<path fill="#1D1D1B" d="M185.7,171.1v0.8h-8.1c0.1,2.4,1.6,4,3.7,4c1.7,0,3-1.1,3.3-2.8l1.4,0.2c-0.3,2.3-2.2,3.8-4.6,3.8   c-3,0-5.1-2.2-5.1-5.3c0-3.1,2-5.4,4.9-5.4C183.9,166.4,185.7,168.4,185.7,171.1z M184.3,170.6c0-1.7-1.3-2.9-3.1-2.9   c-1.8,0-3.1,1.2-3.5,2.9H184.3z"/>
	<path fill="#1D1D1B" d="M188.2,176.8v-10.1h1.4v1.3c0.6-1,1.5-1.6,2.8-1.6c1.4,0,2.4,0.7,2.8,1.9c0.6-1.2,1.6-1.9,3-1.9   c1.9,0,3,1.1,3,3.4l0,7h-1.4v-6.7c0-1.8-0.6-2.5-2-2.5c-1.4,0-2.4,1.1-2.5,3.2l0,6H194v-6.7c0-1.8-0.6-2.5-2-2.5   c-1.5,0-2.5,1.2-2.5,3.5v5.6H188.2z"/>
	<path fill="#1D1D1B" d="M213.7,171.8c0,3-2.1,5.3-5.2,5.3c-3.1,0-5.2-2.3-5.2-5.3c0-3,2.2-5.4,5.2-5.4   C211.6,166.4,213.7,168.8,213.7,171.8z M212.4,171.8c0-2.3-1.6-4.1-3.8-4.1c-2.2,0-3.8,1.8-3.8,4.1c0,2.3,1.6,4,3.8,4   C210.8,175.8,212.4,174.2,212.4,171.8z"/>
	<path fill="#1D1D1B" d="M224.6,169.8l-1.3,0.4c-0.2-1.5-1.4-2.4-3-2.4c-2.1,0-3.6,1.7-3.6,3.9c0,2.5,1.5,4.2,3.7,4.2   c1.8,0,3.2-1.2,3.4-3l1.3,0.3c-0.3,2.3-2.3,4-4.7,4c-3,0-5.1-2.2-5.1-5.3c0-3.1,2-5.4,4.9-5.4C222.5,166.4,224.2,167.8,224.6,169.8   z"/>
	<path fill="#1D1D1B" d="M227.2,176.8v-10.1h1.4v1.2c0.6-1,1.5-1.5,2.7-1.5c1.8,0,3.2,1.4,3.2,3.6l0,0.4l-1.4,0.2c0-0.3,0-0.4,0-0.5   c0-1.5-0.8-2.3-2-2.3c-1.5,0-2.5,1.2-2.5,3.3v5.8H227.2z"/>
	<path fill="#1D1D1B" d="M242.4,170.4v-0.5c0-1.3-0.9-2.2-2.6-2.2c-1.7,0-2.6,1-2.6,2.5l0,0.3l-1.4-0.1c-0.1-2.6,1.6-4,3.9-4   c2.6,0,4,1.4,4,3.6v6.8h-1.3v-1.4c-0.7,1.1-1.8,1.7-3.2,1.7c-2.4,0-3.5-1.5-3.5-3c0-1.9,1.3-2.9,3.8-3.3L242.4,170.4z M242.4,172.5   v-0.8l-2.7,0.4c-1.8,0.3-2.7,0.9-2.7,2c0,1.1,0.9,1.8,2.4,1.8C241.2,175.9,242.4,174.5,242.4,172.5z"/>
	<path fill="#1D1D1B" d="M255.2,169.8l-1.3,0.4c-0.2-1.5-1.4-2.4-3-2.4c-2.1,0-3.6,1.7-3.6,3.9c0,2.5,1.5,4.2,3.7,4.2   c1.8,0,3.2-1.2,3.4-3l1.3,0.3c-0.3,2.3-2.3,4-4.7,4c-3,0-5.1-2.2-5.1-5.3c0-3.1,2-5.4,4.9-5.4C253.2,166.4,254.8,167.8,255.2,169.8   z"/>
	<path fill="#1D1D1B" d="M258.3,177.3c-0.1,1.1,0.2,1.9,0.8,2.5c0.6,0.6,1.4,0.9,2.4,0.9c2.1,0,3.6-1.5,3.6-3.9v-1.9   c-0.7,1.1-2,1.8-3.6,1.8c-2.3,0-3.7-1.5-3.7-3.8l0-6.1h1.4v5.7c0,1.9,0.9,2.9,2.7,2.9c1.9,0,3.2-1.5,3.2-3.8v-4.8h1.4v9.9   c0,3-2,5.2-5,5.2c-2.6,0-4.6-1.7-4.5-4.4L258.3,177.3z"/>
</g>
<g>
	<g>
		<path fill="#FDC608" d="M4,144.3l12.4,4.1v-13.3h12v13.3l12.5-4.1l3.9,11.5l-12.5,4.1l7.7,10.6l-9.7,7.2L22.5,167l-8,10.7    l-9.7-7.2l7.9-10.6l-12.5-4.1L4,144.3z"/>
	</g>
	<path fill="none" stroke="#1D1D1B" stroke-width="1.0383" stroke-miterlimit="10" d="M271.9,49.1c0,0,24.6,69.2-51.8,73.6   c-76.4,4.4-185.4-36.1-197.6,1.5"/>
</g>
</svg>